<svg xmlns="http://www.w3.org/2000/svg" xmlns:xlink="http://www.w3.org/1999/xlink" viewBox="0 0 1096.94 2010.11"><defs><style>.cls-1,.cls-25{fill:none;}.cls-2{isolation:isolate;}.cls-3{clip-path:url(#clip-path);}.cls-4{opacity:0.27;fill:url(#Degradado_sin_nombre_17);}.cls-5{opacity:0.15;}.cls-6{fill:#522582;}.cls-7{fill:#a388be;}.cls-10,.cls-17,.cls-19,.cls-20,.cls-25,.cls-26,.cls-28,.cls-7{stroke:#522582;stroke-width:2.12px;}.cls-19,.cls-20,.cls-25,.cls-7{stroke-miterlimit:10;}.cls-8{fill:#f7c8df;}.cls-13,.cls-22,.cls-8{mix-blend-mode:soft-light;}.cls-9{fill:#e9dae2;}.cls-11,.cls-14,.cls-15,.cls-16,.cls-18,.cls-21,.cls-23,.cls-24,.cls-27,.cls-9{mix-blend-mode:multiply;}.cls-10{fill:#d894c0;}.cls-10,.cls-17,.cls-26,.cls-28{stroke-linecap:round;stroke-linejoin:round;}.cls-11,.cls-12{fill:#fff;}.cls-13{fill:#fce6f1;}.cls-14{fill:#ecd8e3;}.cls-15{fill:#fdf1f7;}.cls-16{fill:#d8cfd7;}.cls-17{fill:#f4b0cf;}.cls-18{fill:#fcfcfc;}.cls-19{fill:#c09cc8;}.cls-20{fill:#ad92c4;}.cls-21{fill:#fef3ee;}.cls-22{fill:#c5cbe8;}.cls-23{fill:#fef5f9;}.cls-24{fill:#dddbe6;}.cls-26{fill:#f9cfe3;}.cls-27{fill:#bea0cc;}.cls-28{fill:#7c5da3;}.cls-29{fill:#bea7d0;}</style><clipPath id="clip-path"><rect class="cls-1" x="-420" y="420" width="1920" height="1080" transform="translate(1500 420) rotate(90)"/></clipPath><linearGradient id="Degradado_sin_nombre_17" x1="540" y1="1920" x2="540" gradientUnits="userSpaceOnUse"><stop offset="0" stop-color="#5a2583"/><stop offset="1" stop-color="#5a2583" stop-opacity="0"/></linearGradient></defs><g class="cls-2"><g id="Capa_2" data-name="Capa 2"><g id="fondo"><g class="cls-3"><rect class="cls-4" width="1080" height="1920"/><g class="cls-5"><path class="cls-6" d="M257.47,1687.48a7.62,7.62,0,1,1-7.61-7.74A7.68,7.68,0,0,1,257.47,1687.48Z"/><path class="cls-6" d="M99.06,1551.28a7.61,7.61,0,1,1-7.61-7.74A7.68,7.68,0,0,1,99.06,1551.28Z"/><path class="cls-6" d="M309.51,1773.16a13.15,13.15,0,1,1-13.14-13.34A13.25,13.25,0,0,1,309.51,1773.16Z"/><path class="cls-6" d="M70.76,1768.94a13.15,13.15,0,1,1-13.14-13.33A13.24,13.24,0,0,1,70.76,1768.94Z"/><path class="cls-6" d="M461.76,1715.57a13.15,13.15,0,1,1-13.15-13.35A13.25,13.25,0,0,1,461.76,1715.57Z"/><path class="cls-6" d="M553.12,1797.05a11.77,11.77,0,1,1-11.78-11.94A11.87,11.87,0,0,1,553.12,1797.05Z"/><path class="cls-6" d="M951.73,1739.45A11.77,11.77,0,1,1,940,1727.51,11.85,11.85,0,0,1,951.73,1739.45Z"/><path class="cls-6" d="M212.63,1781.6a11.76,11.76,0,1,1-11.76-11.95A11.85,11.85,0,0,1,212.63,1781.6Z"/><path class="cls-6" d="M434.09,1579.38a11.77,11.77,0,1,1-11.76-12A11.87,11.87,0,0,1,434.09,1579.38Z"/><path class="cls-6" d="M713.66,1723.3a6.92,6.92,0,1,1-6.93-7A7,7,0,0,1,713.66,1723.3Z"/><path class="cls-6" d="M382.18,1825.83a6.93,6.93,0,1,1-6.93-7A7,7,0,0,1,382.18,1825.83Z"/><path class="cls-6" d="M849.3,1827.94a6.92,6.92,0,1,1-6.91-7A6.95,6.95,0,0,1,849.3,1827.94Z"/><path class="cls-6" d="M772.58,1710.67a7.62,7.62,0,1,1-7.61-7.73A7.67,7.67,0,0,1,772.58,1710.67Z"/><path class="cls-6" d="M935.81,1682.64a7.62,7.62,0,1,1-7.61-7.73A7.67,7.67,0,0,1,935.81,1682.64Z"/><path class="cls-6" d="M867.3,1710.66a13.85,13.85,0,1,1-13.84-14A14,14,0,0,1,867.3,1710.66Z"/><path class="cls-6" d="M650.68,1809a13.84,13.84,0,1,1-13.85-14.07A13.95,13.95,0,0,1,650.68,1809Z"/><path class="cls-6" d="M164.88,1701.53A13.84,13.84,0,1,1,151,1687.47,13.95,13.95,0,0,1,164.88,1701.53Z"/><path class="cls-6" d="M987,1823.74a13.85,13.85,0,1,1-13.85-14A14,14,0,0,1,987,1823.74Z"/><path class="cls-6" d="M500.76,1641.84a13.14,13.14,0,1,1-13.14-13.34A13.22,13.22,0,0,1,500.76,1641.84Z"/><path class="cls-6" d="M249.86,1592.71a13.15,13.15,0,1,1-13.15-13.33A13.25,13.25,0,0,1,249.86,1592.71Z"/><path class="cls-6" d="M760,1539.45a11.77,11.77,0,1,1-11.77-12A11.86,11.86,0,0,1,760,1539.45Z"/><path class="cls-6" d="M765,1595.63a13.15,13.15,0,1,1-13.14-13.34A13.24,13.24,0,0,1,765,1595.63Z"/><path class="cls-6" d="M554.5,1622.32A13.16,13.16,0,1,1,541.35,1609,13.25,13.25,0,0,1,554.5,1622.32Z"/><path class="cls-6" d="M616.18,1715.56a11.77,11.77,0,1,1-11.77-11.94A11.85,11.85,0,0,1,616.18,1715.56Z"/><path class="cls-6" d="M882.92,1561.61a11.77,11.77,0,1,1-11.77-11.94A11.86,11.86,0,0,1,882.92,1561.61Z"/><path class="cls-6" d="M778.1,1782.28A13.14,13.14,0,1,1,765,1768.94,13.25,13.25,0,0,1,778.1,1782.28Z"/><path class="cls-6" d="M374.45,1716.28a13.15,13.15,0,1,1-13.14-13.34A13.25,13.25,0,0,1,374.45,1716.28Z"/><path class="cls-6" d="M172.4,1468a13.15,13.15,0,1,1-13.14-13.34A13.24,13.24,0,0,1,172.4,1468Z"/><path class="cls-6" d="M326.48,1320.42a6.51,6.51,0,1,1-6.5-6.52A6.51,6.51,0,0,1,326.48,1320.42Z"/><path class="cls-6" d="M371,1392.59a11.24,11.24,0,1,1-11.23-11.24A11.24,11.24,0,0,1,371,1392.59Z"/><path class="cls-6" d="M166.88,1389a11.24,11.24,0,1,1-11.22-11.24A11.22,11.22,0,0,1,166.88,1389Z"/><path class="cls-6" d="M501.11,1344.08a11.24,11.24,0,1,1-11.23-11.24A11.23,11.23,0,0,1,501.11,1344.08Z"/><path class="cls-6" d="M579.21,1412.71a10.07,10.07,0,1,1-10.07-10.06A10.08,10.08,0,0,1,579.21,1412.71Z"/><path class="cls-6" d="M919.94,1364.2a10.06,10.06,0,1,1-10.06-10.06A10.06,10.06,0,0,1,919.94,1364.2Z"/><path class="cls-6" d="M288.15,1399.69a10.05,10.05,0,1,1-10-10.06A10.06,10.06,0,0,1,288.15,1399.69Z"/><path class="cls-6" d="M477.46,1229.37a10.06,10.06,0,1,1-10-10A10.06,10.06,0,0,1,477.46,1229.37Z"/><path class="cls-6" d="M716.43,1350.59a5.92,5.92,0,1,1-5.92-5.91A5.91,5.91,0,0,1,716.43,1350.59Z"/><path class="cls-6" d="M433.09,1437a5.92,5.92,0,1,1-5.93-5.92A5.92,5.92,0,0,1,433.09,1437Z"/><path class="cls-6" d="M832.38,1438.73a5.92,5.92,0,1,1-5.91-5.92A5.9,5.9,0,0,1,832.38,1438.73Z"/><path class="cls-6" d="M766.8,1340a6.52,6.52,0,1,1-6.5-6.51A6.51,6.51,0,0,1,766.8,1340Z"/><path class="cls-6" d="M740.58,1131a6.51,6.51,0,1,1-6.51-6.51A6.5,6.5,0,0,1,740.58,1131Z"/><path class="cls-6" d="M847.76,1340a11.83,11.83,0,1,1-11.82-11.83A11.83,11.83,0,0,1,847.76,1340Z"/><path class="cls-6" d="M662.59,1422.78a11.83,11.83,0,1,1-11.83-11.85A11.83,11.83,0,0,1,662.59,1422.78Z"/><path class="cls-6" d="M247.33,1332.26a11.83,11.83,0,1,1-11.83-11.84A11.83,11.83,0,0,1,247.33,1332.26Z"/><path class="cls-6" d="M950.1,1435.18a11.84,11.84,0,1,1-11.84-11.83A11.84,11.84,0,0,1,950.1,1435.18Z"/><path class="cls-6" d="M534.45,1282a11.24,11.24,0,1,1-11.23-11.23A11.23,11.23,0,0,1,534.45,1282Z"/><path class="cls-6" d="M320,1240.61a11.24,11.24,0,1,1-11.24-11.24A11.24,11.24,0,0,1,320,1240.61Z"/><path class="cls-6" d="M756.08,1195.75A10.06,10.06,0,1,1,746,1185.69,10.07,10.07,0,0,1,756.08,1195.75Z"/><path class="cls-6" d="M677.17,1066.06A10.07,10.07,0,1,1,667.1,1056,10.08,10.08,0,0,1,677.17,1066.06Z"/><path class="cls-6" d="M760.29,1243.06a11.24,11.24,0,1,1-11.24-11.23A11.25,11.25,0,0,1,760.29,1243.06Z"/><path class="cls-6" d="M580.38,1265.55a11.25,11.25,0,1,1-11.24-11.23A11.23,11.23,0,0,1,580.38,1265.55Z"/><path class="cls-6" d="M633.11,1344.08A10.06,10.06,0,1,1,623.05,1334,10.07,10.07,0,0,1,633.11,1344.08Z"/><path class="cls-6" d="M361.72,1235.16a10.07,10.07,0,1,1-10.07-10.06A10.07,10.07,0,0,1,361.72,1235.16Z"/><path class="cls-6" d="M543.88,1181.22a11.83,11.83,0,1,1-11.83-11.85A11.83,11.83,0,0,1,543.88,1181.22Z"/><path class="cls-6" d="M376.24,1077.3A11.24,11.24,0,1,1,365,1066.06,11.23,11.23,0,0,1,376.24,1077.3Z"/><path class="cls-6" d="M442,1173.21A11.25,11.25,0,1,1,430.73,1162,11.23,11.23,0,0,1,442,1173.21Z"/><path class="cls-6" d="M522,1088.53A10.06,10.06,0,1,1,512,1078.47,10.07,10.07,0,0,1,522,1088.53Z"/><path class="cls-6" d="M771.51,1400.27A11.23,11.23,0,1,1,760.28,1389,11.23,11.23,0,0,1,771.51,1400.27Z"/><path class="cls-6" d="M426.47,1344.68a11.24,11.24,0,1,1-11.23-11.24A11.23,11.23,0,0,1,426.47,1344.68Z"/><rect class="cls-7" x="218.74" y="1356.83" width="470.2" height="174.08"/><path class="cls-8" d="M311.73,1444c22.74,7.71,40.25-4.19,55.13-20.9,18.35-20.64,37.41-45.39,68.33-44.42,31.86,1,55.42,20.29,78.47,40.32,17.72,15.4,33.09,28.07,58,25.82,26.72-2.41,60.08-14.53,75.66-38,12.34-18.62,18.93-40,27.49-60.44H253.17a27.51,27.51,0,0,1-1.45,9.86C241.21,1388,283.26,1434.31,311.73,1444Z"/><path class="cls-9" d="M686.41,1463.64c-26.59,25-59.27,40.13-95.42,44.8-33.63,4.36-67.58-49.87-93.93-71-12.24-9.82-61.3-48.84-78.52-32.16-23.67,22.92-25.07,95-59.67,103-28.73,6.7-57.16,1.7-81.41-15.31-21.44-15-44.14-37.31-58.72-62.81v100.72h470.2v-69.85C688.09,1461.92,687.29,1462.8,686.41,1463.64Z"/><path class="cls-6" d="M328.68,1449.19a3.7,3.7,0,1,1-3.7-3.71A3.7,3.7,0,0,1,328.68,1449.19Z"/><path class="cls-6" d="M374,1433.74a3.7,3.7,0,1,1-3.7-3.7A3.7,3.7,0,0,1,374,1433.74Z"/><path class="cls-6" d="M299.2,1372.69a3.7,3.7,0,1,1-3.7-3.7A3.7,3.7,0,0,1,299.2,1372.69Z"/><path class="cls-6" d="M263,1513a3.7,3.7,0,1,1-3.7-3.7A3.7,3.7,0,0,1,263,1513Z"/><path class="cls-6" d="M247.47,1462.62a3.7,3.7,0,1,1-3.7-3.7A3.7,3.7,0,0,1,247.47,1462.62Z"/><path class="cls-6" d="M353.94,1490.16a6.39,6.39,0,1,1-6.38-6.38A6.38,6.38,0,0,1,353.94,1490.16Z"/><path class="cls-6" d="M238.06,1488.14a6.38,6.38,0,1,1-6.37-6.38A6.38,6.38,0,0,1,238.06,1488.14Z"/><path class="cls-6" d="M427.82,1462.62a6.38,6.38,0,1,1-6.37-6.38A6.38,6.38,0,0,1,427.82,1462.62Z"/><path class="cls-6" d="M472.16,1501.58a5.71,5.71,0,1,1-5.71-5.71A5.72,5.72,0,0,1,472.16,1501.58Z"/><path class="cls-6" d="M665.62,1474a5.72,5.72,0,1,1-5.71-5.71A5.71,5.71,0,0,1,665.62,1474Z"/><path class="cls-6" d="M649.57,1377.35a5.71,5.71,0,1,1-5.72-5.71A5.71,5.71,0,0,1,649.57,1377.35Z"/><path class="cls-6" d="M306.91,1494.19a5.71,5.71,0,1,1-5.7-5.71A5.71,5.71,0,0,1,306.91,1494.19Z"/><path class="cls-6" d="M414.39,1397.49a5.71,5.71,0,1,1-5.7-5.71A5.71,5.71,0,0,1,414.39,1397.49Z"/><path class="cls-6" d="M550.07,1466.31a3.36,3.36,0,1,1-3.36-3.35A3.35,3.35,0,0,1,550.07,1466.31Z"/><path class="cls-6" d="M621.28,1397.49a3.36,3.36,0,1,1-3.36-3.36A3.35,3.35,0,0,1,621.28,1397.49Z"/><path class="cls-6" d="M596.75,1430.71a3.36,3.36,0,1,1-3.36-3.35A3.36,3.36,0,0,1,596.75,1430.71Z"/><path class="cls-6" d="M389.21,1515.35a3.37,3.37,0,1,1-3.37-3.36A3.37,3.37,0,0,1,389.21,1515.35Z"/><path class="cls-6" d="M241.42,1383.05a3.36,3.36,0,1,1-3.37-3.36A3.37,3.37,0,0,1,241.42,1383.05Z"/><path class="cls-6" d="M615.91,1516.35a3.36,3.36,0,1,1-3.36-3.36A3.35,3.35,0,0,1,615.91,1516.35Z"/><path class="cls-6" d="M647.22,1427.36a3.36,3.36,0,1,1-3.35-3.36A3.35,3.35,0,0,1,647.22,1427.36Z"/><path class="cls-6" d="M676,1449.18a3.36,3.36,0,1,1-3.36-3.36A3.36,3.36,0,0,1,676,1449.18Z"/><path class="cls-6" d="M524.5,1430.71a3.36,3.36,0,1,1-3.36-3.35A3.35,3.35,0,0,1,524.5,1430.71Z"/><path class="cls-6" d="M328.34,1514a3.36,3.36,0,1,1-3.36-3.35A3.35,3.35,0,0,1,328.34,1514Z"/><path class="cls-6" d="M578.68,1460.27a3.7,3.7,0,1,1-3.7-3.69A3.7,3.7,0,0,1,578.68,1460.27Z"/><path class="cls-6" d="M624.64,1460.27a6.72,6.72,0,1,1-6.71-6.71A6.72,6.72,0,0,1,624.64,1460.27Z"/><path class="cls-6" d="M519.51,1507.3a6.72,6.72,0,1,1-6.72-6.73A6.72,6.72,0,0,1,519.51,1507.3Z"/><path class="cls-6" d="M283.74,1455.9a6.72,6.72,0,1,1-6.72-6.72A6.72,6.72,0,0,1,283.74,1455.9Z"/><path class="cls-6" d="M682.75,1514.34a6.72,6.72,0,1,1-6.72-6.72A6.73,6.73,0,0,1,682.75,1514.34Z"/><path class="cls-6" d="M446.76,1427.36a6.38,6.38,0,1,1-6.38-6.38A6.38,6.38,0,0,1,446.76,1427.36Z"/><path class="cls-6" d="M449.82,1383.05a6.38,6.38,0,1,1-6.38-6.38A6.38,6.38,0,0,1,449.82,1383.05Z"/><path class="cls-6" d="M325,1403.87a6.38,6.38,0,1,1-6.37-6.38A6.37,6.37,0,0,1,325,1403.87Z"/><path class="cls-6" d="M283.4,1418a6.38,6.38,0,1,1-6.37-6.38A6.37,6.37,0,0,1,283.4,1418Z"/><path class="cls-6" d="M376.71,1407.23a6.39,6.39,0,1,1-6.38-6.38A6.38,6.38,0,0,1,376.71,1407.23Z"/><path class="cls-6" d="M572.58,1378.4a5.71,5.71,0,1,1-5.7-5.72A5.71,5.71,0,0,1,572.58,1378.4Z"/><path class="cls-6" d="M575,1405.26a6.38,6.38,0,1,1-6.37-6.38A6.38,6.38,0,0,1,575,1405.26Z"/><path class="cls-6" d="M472.83,1418a6.39,6.39,0,1,1-6.38-6.38A6.37,6.37,0,0,1,472.83,1418Z"/><path class="cls-6" d="M529.86,1392.5a6.39,6.39,0,1,1-6.38-6.38A6.38,6.38,0,0,1,529.86,1392.5Z"/><path class="cls-6" d="M502.77,1462.61a5.72,5.72,0,1,1-5.71-5.71A5.72,5.72,0,0,1,502.77,1462.61Z"/><path class="cls-6" d="M243.77,1427.36a5.71,5.71,0,1,1-5.71-5.71A5.71,5.71,0,0,1,243.77,1427.36Z"/><path class="cls-6" d="M581.35,1494.52a6.38,6.38,0,1,1-6.38-6.38A6.38,6.38,0,0,1,581.35,1494.52Z"/><path class="cls-6" d="M675.68,1405.26a6.38,6.38,0,1,1-6.38-6.37A6.38,6.38,0,0,1,675.68,1405.26Z"/><path class="cls-6" d="M376.71,1372.68a6.38,6.38,0,1,1-6.39-6.38A6.38,6.38,0,0,1,376.71,1372.68Z"/><path class="cls-6" d="M385.45,1463a6.38,6.38,0,1,1-6.37-6.38A6.38,6.38,0,0,1,385.45,1463Z"/><path class="cls-10" d="M430.24,1289.64s-94.49-75.41-96.93-90.79,48.62-53.14,63.26-46.4,44.05,118.68,44.05,118.68Z"/><path class="cls-11" d="M404.23,1242.62c7.11-8.75,2.63-33.62,5.43-44.61,1.89-7.43,1.68-14.68.89-21.94,14.23,34.74,30.07,95.06,30.07,95.06l-10.38,18.51S401.9,1267,375.86,1244C382.63,1239.49,399.1,1248.94,404.23,1242.62Z"/><path class="cls-6" d="M423.25,1252.59l-17.11-51.49,23.95,48.69a3.71,3.71,0,1,1-6.65,3.27A3.85,3.85,0,0,1,423.25,1252.59Z"/><path class="cls-6" d="M410.18,1268.68l-33.5-39.5,38.78,34.33a3.71,3.71,0,1,1-4.91,5.55A2.65,2.65,0,0,1,410.18,1268.68Z"/><path class="cls-6" d="M423.52,1276.17l-24.35-48.39,30.73,44.62a3.71,3.71,0,0,1-6.12,4.21C423.69,1276.47,423.6,1276.31,423.52,1276.17Z"/><path class="cls-10" d="M438.91,1298.68s-120.81,4.7-132.7-5.34,2.05-72,17.54-76.47,110.91,61,110.91,61Z"/><path class="cls-11" d="M388.49,1280.11c-.34-11.28-20-27.17-25.06-37.31-3.42-6.86-8.32-12.21-13.67-17.19,33.47,17,84.9,52.28,84.9,52.28l4.25,20.79s-36.24,1.41-71,1C370.1,1291.85,388.73,1288.24,388.49,1280.11Z"/><path class="cls-6" d="M409.4,1275.22l-46.62-27.78,50,21.18a3.71,3.71,0,1,1-2.89,6.83A3.17,3.17,0,0,1,409.4,1275.22Z"/><path class="cls-6" d="M410,1295.94l-51.17-8,51.79.63a3.71,3.71,0,0,1-.09,7.42A3.07,3.07,0,0,1,410,1295.94Z"/><path class="cls-6" d="M408.38,1283.65,375,1272.19l35.08,4.25a3.72,3.72,0,0,1-.9,7.39A4.68,4.68,0,0,1,408.38,1283.65Z"/><path class="cls-10" d="M477.82,1288s94.5-75.41,96.93-90.79-48.62-53.14-63.25-46.39-44.06,118.67-44.06,118.67Z"/><path class="cls-11" d="M503.83,1241c-7.11-8.76-2.62-33.63-5.42-44.62-1.89-7.42-1.69-14.68-.9-21.94-14.22,34.74-30.07,95.06-30.07,95.06L477.82,1288s28.35-22.62,54.39-45.61C525.43,1237.86,509,1247.3,503.83,1241Z"/><path class="cls-6" d="M478,1248.15l24-48.68L484.82,1251a3.71,3.71,0,0,1-7-2.34A3.85,3.85,0,0,1,478,1248.15Z"/><path class="cls-6" d="M492.6,1261.87l38.79-34.33-33.5,39.51a3.71,3.71,0,1,1-5.66-4.8C492.35,1262.12,492.48,1262,492.6,1261.87Z"/><path class="cls-6" d="M478.17,1270.77l30.72-44.62-24.35,48.39a3.71,3.71,0,1,1-6.37-3.77Z"/><path class="cls-10" d="M469.83,1299.16s31.59-116.69,24.47-130.53-70.64-14.1-78.45,0,34.66,121.75,34.66,121.75Z"/><path class="cls-11" d="M463,1245.87c-10.9-2.85-22-25.56-30.75-32.77-5.92-4.87-10-10.84-13.7-17.16,9.08,36.42,32,94.44,32,94.44l19.32,8.78s9.47-35,16.88-68.94C478.56,1230.57,470.87,1247.93,463,1245.87Z"/><path class="cls-6" d="M446.38,1266.94l-9.48-53.43,16.66,51.64a3.71,3.71,0,1,1-7.06,2.28A3.89,3.89,0,0,1,446.38,1266.94Z"/><path class="cls-6" d="M466.29,1269.35l11-50.62-3.64,51.67a3.71,3.71,0,1,1-7.4-.52A4.25,4.25,0,0,1,466.29,1269.35Z"/><path class="cls-6" d="M454.6,1266.05l3.7-35.14,3.7,35.14a3.72,3.72,0,1,1-7.4.78A5.08,5.08,0,0,1,454.6,1266.05Z"/><path class="cls-10" d="M469.16,1291.55s120.81,4.7,132.7-5.35-2.05-72-17.55-76.46-110.9,61-110.9,61Z"/><path class="cls-11" d="M519.58,1273c.34-11.27,20-27.16,25-37.3,3.43-6.86,8.32-12.22,13.67-17.19-33.47,17-84.89,52.28-84.89,52.28l-4.25,20.79s36.24,1.41,71,1C538,1284.72,519.33,1281.1,519.58,1273Z"/><path class="cls-6" d="M495.33,1261.49l49.95-21.19-46.61,27.79a3.71,3.71,0,1,1-3.8-6.37A2.47,2.47,0,0,1,495.33,1261.49Z"/><path class="cls-6" d="M497.43,1281.44l51.79-.63-51.17,8a3.71,3.71,0,1,1-1.15-7.33A3.15,3.15,0,0,1,497.43,1281.44Z"/><path class="cls-6" d="M498,1269.3l35.08-4.25-33.43,11.47a3.72,3.72,0,0,1-2.4-7A3.28,3.28,0,0,1,498,1269.3Z"/><path class="cls-10" d="M487.92,1279c0,11-14.69,19.89-32.81,19.89s-32.8-8.9-32.8-19.89,14.69-19.89,32.8-19.89S487.92,1268,487.92,1279Z"/><path class="cls-12" d="M478.88,1172.86c-6.41-6.72-18.19-7.15-26.82-7.17-6.32,0-18.25-.13-21.91,6.34a.17.17,0,0,0,.1.24c3.27.91,7.2.6,10.56.4a64.89,64.89,0,0,1,19.27,2.06c5.13,1.29,9.56,4.13,14.51,5.5,2.63.72,4.54-.84,5.43-3.08A4.31,4.31,0,0,0,478.88,1172.86Z"/><path class="cls-12" d="M547.16,1169.24c-6.72-4.9-20.25-12.45-28.85-8.83-.94.4-1.43,1.81-.31,2.39,7.25,3.77,14.91,5.8,21.94,10.38a45.55,45.55,0,0,1,11.72,10.94c2,2.69,2.35,5.93,5.26,7.78a2.81,2.81,0,0,0,3.8-1C565.67,1183.27,552.28,1173,547.16,1169.24Z"/><path class="cls-12" d="M587.89,1225.3c-3.13-3.69-9.08-7.34-14.07-5.64a2,2,0,0,0-.85,3.22c2.32,2.84,5.38,5,7.73,7.94,2.66,3.28,3.09,6.91,4.2,10.82s7.26,4.22,8.18,0C594.34,1235.82,591.64,1229.72,587.89,1225.3Z"/><path class="cls-12" d="M397.22,1165.69c-1.11-8-12.15-7.49-17.67-5.34-5.68,2.21-13,6.48-16.59,11.53a1.43,1.43,0,0,0,.86,2.1c4.25.88,8.58-2.36,12.24-4.09,3.05-1.44,6-3,9.43-3.37,3.23-.31,4.9,2.25,7.76,3.14C395.86,1170.46,397.54,1168,397.22,1165.69Z"/><path class="cls-12" d="M325.71,1229.33c-12.14-.48-19.06,15.2-15.28,25.32a1.65,1.65,0,0,0,3.15,0c1.43-3.52,2.85-7.14,4.42-10.62s3.7-6,7.71-5.57C331.51,1239,331.63,1229.57,325.71,1229.33Z"/><rect class="cls-7" x="205.07" y="1286.73" width="497.55" height="70.1"/><rect class="cls-13" x="205.07" y="1286.73" width="497.55" height="25.65"/><rect class="cls-10" x="406.82" y="1356.83" width="94.04" height="174.08"/><rect class="cls-14" x="406.82" y="1356.83" width="66.68" height="174.08"/><rect class="cls-14" x="406.82" y="1356.83" width="33.34" height="174.08"/><rect class="cls-10" x="396.56" y="1286.73" width="114.56" height="70.1"/><rect class="cls-14" x="396.56" y="1286.73" width="81.24" height="70.1"/><rect class="cls-14" x="396.56" y="1286.73" width="40.62" height="70.1"/><rect class="cls-15" x="218.74" y="1356.83" width="470.2" height="20.52"/><rect class="cls-10" x="431.64" y="1475.91" width="470.2" height="336.95"/><path class="cls-6" d="M493.89,1481.14A29.14,29.14,0,1,1,464.75,1452,29.13,29.13,0,0,1,493.89,1481.14Z"/><circle class="cls-6" cx="545.18" cy="1547.14" r="29.14"/><path class="cls-6" d="M493.89,1605a29.14,29.14,0,1,1-29.14-29.14A29.13,29.13,0,0,1,493.89,1605Z"/><circle class="cls-6" cx="545.18" cy="1671.03" r="29.14"/><path class="cls-6" d="M493.89,1728.93a29.14,29.14,0,1,1-29.14-29.14A29.14,29.14,0,0,1,493.89,1728.93Z"/><path class="cls-6" d="M568.85,1811.88a29.14,29.14,0,1,0-47.35,0Z"/><path class="cls-6" d="M655.66,1481.14A29.14,29.14,0,1,1,626.52,1452,29.13,29.13,0,0,1,655.66,1481.14Z"/><circle class="cls-6" cx="706.95" cy="1547.14" r="29.14"/><path class="cls-6" d="M655.66,1605a29.14,29.14,0,1,1-29.14-29.14A29.13,29.13,0,0,1,655.66,1605Z"/><circle class="cls-6" cx="706.95" cy="1671.03" r="29.14"/><path class="cls-6" d="M655.66,1728.93a29.14,29.14,0,1,1-29.14-29.14A29.14,29.14,0,0,1,655.66,1728.93Z"/><path class="cls-6" d="M730.62,1811.88a29.14,29.14,0,1,0-47.34,0Z"/><path class="cls-6" d="M817.43,1481.14A29.14,29.14,0,1,1,788.29,1452,29.13,29.13,0,0,1,817.43,1481.14Z"/><path class="cls-6" d="M897.86,1547.14A29.14,29.14,0,1,1,868.72,1518,29.14,29.14,0,0,1,897.86,1547.14Z"/><circle class="cls-6" cx="788.29" cy="1605.03" r="29.14"/><path class="cls-6" d="M897.86,1671a29.14,29.14,0,1,1-29.14-29.13A29.14,29.14,0,0,1,897.86,1671Z"/><circle class="cls-6" cx="788.29" cy="1728.93" r="29.14"/><path class="cls-6" d="M892.39,1811.88a29.14,29.14,0,1,0-47.34,0Z"/><path class="cls-16" d="M876.25,1749c-44.94,9.12-72.06,12.16-117.63,7.42-16.47-1.71-27.88-148.92-44.86-188.53-23.83-55.58-72-11-94-18.73-9.63-3.39-19.16,176.75-28.51,172.15-52.64-25.94-99.5-70.21-124.84-122.4-18-37-30.83-81.88-24.87-123h-9.89v336.95h470.2v-70.23C893.39,1745.08,884.87,1747.23,876.25,1749Z"/><path class="cls-8" d="M514.39,1622.21c23.87,12.18,42.25-6.61,57.86-33,19.27-32.6,39.27-71.68,71.72-70.15,33.45,1.57,58.17,32,82.37,63.67,18.6,24.33,34.74,44.34,60.87,40.79,28-3.81,63.07-23,79.42-60.08,13-29.42,19.86-63.12,28.85-95.46H452.92a64.34,64.34,0,0,1-1.53,15.58C440.36,1533.88,484.5,1607,514.39,1622.21Z"/><path class="cls-17" d="M639.64,1410.84s-94.49-75.41-96.92-90.78,48.61-53.15,63.25-46.4S650,1392.34,650,1392.34Z"/><path class="cls-11" d="M613.63,1363.83c7.11-8.75,2.63-33.62,5.43-44.61,1.89-7.43,1.68-14.69.89-21.94C634.18,1332,650,1392.34,650,1392.34l-10.39,18.5s-28.34-22.62-54.38-45.6C592,1360.7,608.5,1370.14,613.63,1363.83Z"/><path class="cls-6" d="M632.65,1373.8l-17.11-51.49,24,48.68a3.71,3.71,0,0,1-6.66,3.28A4.62,4.62,0,0,1,632.65,1373.8Z"/><path class="cls-6" d="M619.58,1389.89l-33.5-39.51,38.78,34.33a3.71,3.71,0,0,1-4.91,5.56A4.4,4.4,0,0,1,619.58,1389.89Z"/><path class="cls-6" d="M632.93,1397.38,608.58,1349l30.72,44.62a3.71,3.71,0,0,1-6.11,4.21A3.37,3.37,0,0,1,632.93,1397.38Z"/><path class="cls-17" d="M648.31,1419.89s-120.81,4.7-132.7-5.34,2-72,17.55-76.47,110.9,61,110.9,61Z"/><path class="cls-11" d="M597.89,1401.31c-.34-11.27-20-27.16-25.06-37.3-3.42-6.86-8.32-12.22-13.66-17.19,33.47,17,84.89,52.28,84.89,52.28l4.25,20.79s-36.24,1.41-71,1C579.5,1413.06,598.14,1409.45,597.89,1401.31Z"/><path class="cls-6" d="M618.8,1396.43l-46.61-27.78,49.95,21.18a3.71,3.71,0,1,1-2.89,6.83A3.81,3.81,0,0,1,618.8,1396.43Z"/><path class="cls-6" d="M619.42,1417.15l-51.17-8,51.79.63a3.71,3.71,0,1,1-.09,7.42A4.75,4.75,0,0,1,619.42,1417.15Z"/><path class="cls-6" d="M617.78,1404.86l-33.43-11.47,35.09,4.26a3.72,3.72,0,0,1-.9,7.38A3.81,3.81,0,0,1,617.78,1404.86Z"/><path class="cls-17" d="M687.22,1409.21s94.5-75.41,96.93-90.79-48.61-53.14-63.26-46.39-44,118.67-44,118.67Z"/><path class="cls-11" d="M713.24,1362.19c-7.11-8.75-2.63-33.62-5.43-44.61-1.89-7.42-1.68-14.68-.89-21.94-14.23,34.74-30.07,95.06-30.07,95.06l10.37,18.51s28.35-22.62,54.39-45.61C734.84,1359.06,718.37,1368.51,713.24,1362.19Z"/><path class="cls-6" d="M687.38,1369.36l24-48.69-17.11,51.5a3.71,3.71,0,0,1-7-2.34A3.32,3.32,0,0,1,687.38,1369.36Z"/><path class="cls-6" d="M702,1383.08l38.78-34.33-33.5,39.51a3.71,3.71,0,1,1-5.66-4.8A4.54,4.54,0,0,1,702,1383.08Z"/><path class="cls-6" d="M687.57,1392l30.73-44.62-24.36,48.39a3.71,3.71,0,1,1-6.62-3.33C687.39,1392.26,687.49,1392.11,687.57,1392Z"/><path class="cls-17" d="M679.23,1420.37s31.59-116.69,24.46-130.53-70.63-14.1-78.44,0,34.66,121.74,34.66,121.74Z"/><path class="cls-11" d="M672.4,1367.08c-10.91-2.86-22-25.56-30.76-32.77-5.92-4.87-10-10.84-13.7-17.16,9.08,36.42,32,94.43,32,94.43l19.32,8.79s9.48-35,16.88-68.94C688,1351.78,680.27,1369.13,672.4,1367.08Z"/><path class="cls-6" d="M655.78,1388.15l-9.47-53.43L663,1386.36a3.71,3.71,0,1,1-7.06,2.28A5,5,0,0,1,655.78,1388.15Z"/><path class="cls-6" d="M675.69,1390.56l11-50.62L683,1391.61a3.71,3.71,0,0,1-7.4-.53A4.34,4.34,0,0,1,675.69,1390.56Z"/><path class="cls-6" d="M664,1387.26l3.7-35.14,3.7,35.14a3.72,3.72,0,1,1-7.4.77A2.49,2.49,0,0,1,664,1387.26Z"/><path class="cls-17" d="M678.56,1412.75s120.81,4.71,132.7-5.34-2-72-17.55-76.46-110.9,61-110.9,61Z"/><path class="cls-11" d="M729,1394.18c.34-11.27,20-27.16,25.06-37.31,3.42-6.85,8.32-12.21,13.66-17.18-33.47,17-84.89,52.27-84.89,52.27l-4.25,20.79s36.23,1.41,71,1C747.37,1405.93,728.74,1402.31,729,1394.18Z"/><path class="cls-6" d="M704.73,1382.69l49.95-21.18-46.61,27.79a3.71,3.71,0,0,1-3.79-6.38Z"/><path class="cls-6" d="M706.83,1402.64l51.79-.62-51.18,8a3.71,3.71,0,0,1-1.14-7.33A4.75,4.75,0,0,1,706.83,1402.64Z"/><path class="cls-6" d="M707.43,1390.51l35.08-4.25-33.42,11.46a3.72,3.72,0,1,1-2.41-7A4.05,4.05,0,0,1,707.43,1390.51Z"/><path class="cls-17" d="M697.32,1400.19c0,11-14.69,19.89-32.81,19.89s-32.8-8.91-32.8-19.89,14.68-19.89,32.8-19.89S697.32,1389.2,697.32,1400.19Z"/><path class="cls-12" d="M688.29,1294.06c-6.42-6.71-18.19-7.14-26.83-7.16-6.31,0-18.25-.13-21.91,6.34a.17.17,0,0,0,.1.24c3.27.91,7.2.6,10.56.4a64.89,64.89,0,0,1,19.27,2.06c5.14,1.29,9.57,4.13,14.52,5.49,2.62.73,4.53-.83,5.42-3.07A4.35,4.35,0,0,0,688.29,1294.06Z"/><path class="cls-12" d="M756.56,1290.45c-6.72-4.9-20.25-12.45-28.84-8.83a1.32,1.32,0,0,0-.31,2.39c7.24,3.77,14.91,5.8,21.94,10.38a46,46,0,0,1,11.72,10.94c2,2.68,2.34,5.93,5.26,7.78a2.81,2.81,0,0,0,3.79-1C775.08,1304.48,761.68,1294.18,756.56,1290.45Z"/><path class="cls-12" d="M797.3,1346.51c-3.15-3.69-9.08-7.34-14.08-5.65a2,2,0,0,0-.85,3.22c2.32,2.85,5.38,5.05,7.74,8,2.65,3.28,3.09,6.91,4.19,10.82s7.26,4.21,8.18,0C803.74,1357,801.05,1350.92,797.3,1346.51Z"/><path class="cls-12" d="M606.62,1286.89c-1.11-8-12.15-7.48-17.67-5.33-5.68,2.21-13,6.48-16.58,11.53a1.43,1.43,0,0,0,.85,2.1c4.25.88,8.59-2.36,12.25-4.09,3-1.44,6-3,9.42-3.37,3.24-.32,4.9,2.25,7.76,3.13C605.26,1291.67,606.94,1289.17,606.62,1286.89Z"/><path class="cls-12" d="M535.11,1350.54c-12.13-.48-19.05,15.19-15.28,25.32a1.65,1.65,0,0,0,3.15,0c1.43-3.53,2.84-7.15,4.43-10.62s3.7-6,7.7-5.57C540.91,1360.22,541,1350.78,535.11,1350.54Z"/><rect class="cls-10" x="417.96" y="1409.51" width="497.55" height="70.1"/><rect class="cls-13" x="431.64" y="1415.57" width="470.19" height="19.59"/><rect class="cls-17" x="619.72" y="1476.71" width="94.04" height="336.95"/><rect class="cls-11" x="619.72" y="1479.61" width="47.02" height="332.36"/><rect class="cls-11" x="619.72" y="1479.61" width="23.51" height="332.36"/><rect class="cls-17" x="609.45" y="1409.51" width="114.57" height="70.1"/><rect class="cls-11" x="609.45" y="1409.51" width="67.55" height="70.1"/><rect class="cls-11" x="609.45" y="1409.51" width="33.78" height="70.1"/><rect class="cls-18" x="431.64" y="1479.61" width="470.2" height="20.52"/><path class="cls-19" d="M624.75,1637.58s-64.37-51.37-66-61.84,33.12-36.2,43.09-31.61,30,80.84,30,80.84Z"/><path class="cls-11" d="M607,1605.55c4.84-6,1.78-22.9,3.69-30.39a41.2,41.2,0,0,0,.61-14.94c9.69,23.66,20.49,64.75,20.49,64.75l-7.07,12.61s-19.31-15.41-37.06-31.07C592.31,1603.41,603.53,1609.85,607,1605.55Z"/><path class="cls-6" d="M618.89,1612.79l-10.57-35.52L625.74,1610a3.72,3.72,0,0,1-6.57,3.5A4.53,4.53,0,0,1,618.89,1612.79Z"/><path class="cls-6" d="M610.23,1624.13l-22-27.74L615.52,1619a3.72,3.72,0,1,1-4.74,5.73A3.57,3.57,0,0,1,610.23,1624.13Z"/><path class="cls-6" d="M619.16,1629l-15.58-33.57,21.94,29.79a3.72,3.72,0,1,1-6,4.42A3.27,3.27,0,0,1,619.16,1629Z"/><path class="cls-19" d="M630.65,1643.74s-82.29,3.2-90.39-3.64,1.39-49,12-52.09,75.55,41.57,75.55,41.57Z"/><path class="cls-11" d="M596.3,1631.09c-.23-7.68-13.61-18.5-17.07-25.42a41.43,41.43,0,0,0-9.3-11.71c22.8,11.58,57.83,35.62,57.83,35.62l2.89,14.16s-24.69,1-48.34.71C583.77,1639.09,596.47,1636.62,596.3,1631.09Z"/><path class="cls-6" d="M610,1628.81l-31.22-20,34.57,13.37a3.72,3.72,0,1,1-3.35,6.6Z"/><path class="cls-6" d="M610.87,1643.05l-34.76-6.63,35.37-.74a3.72,3.72,0,1,1,.17,7.43A4,4,0,0,1,610.87,1643.05Z"/><path class="cls-6" d="M609.58,1634.65l-22.49-9,24.15,1.75a3.74,3.74,0,1,1-.54,7.47A3.89,3.89,0,0,1,609.58,1634.65Z"/><path class="cls-19" d="M657.16,1636.46s64.37-51.37,66-61.84-33.12-36.2-43.09-31.6-30,80.84-30,80.84Z"/><path class="cls-11" d="M674.88,1604.44c-4.85-6-1.79-22.91-3.7-30.39a41.25,41.25,0,0,1-.61-15c-9.69,23.67-20.48,64.76-20.48,64.76l7.07,12.6s19.31-15.4,37.05-31.06C689.59,1602.31,678.37,1608.74,674.88,1604.44Z"/><path class="cls-6" d="M656.17,1608.87l17.41-32.72L663,1611.68a3.72,3.72,0,0,1-7.14-2.12A3.86,3.86,0,0,1,656.17,1608.87Z"/><path class="cls-6" d="M666.38,1617.84l27.26-22.56-22,27.73a3.72,3.72,0,0,1-5.84-4.61A4.17,4.17,0,0,1,666.38,1617.84Z"/><path class="cls-6" d="M656.39,1624.12l21.93-29.79-15.57,33.56a3.72,3.72,0,1,1-6.75-3.13A3.54,3.54,0,0,1,656.39,1624.12Z"/><path class="cls-19" d="M651.71,1644.07s21.52-79.49,16.67-88.92-48.12-9.61-53.44,0,23.61,82.93,23.61,82.93Z"/><path class="cls-11" d="M647.06,1607.77c-7.43-2-15-17.42-20.95-22.33a41,41,0,0,1-9.34-11.69c6.19,24.82,21.78,64.33,21.78,64.33l13.16,6s6.45-23.84,11.5-47C657.66,1597.34,652.42,1609.17,647.06,1607.77Z"/><path class="cls-6" d="M634.59,1622.4l-5.31-36.68,12.49,34.9a3.72,3.72,0,1,1-7,2.5A3.61,3.61,0,0,1,634.59,1622.4Z"/><path class="cls-6" d="M648.14,1623.59l8.63-34.31-1.31,35.36a3.72,3.72,0,0,1-7.44-.27A4.88,4.88,0,0,1,648.14,1623.59Z"/><path class="cls-6" d="M640.15,1621.51l3.7-23.94,3.7,23.94a3.74,3.74,0,1,1-7.4,1.14A4.35,4.35,0,0,1,640.15,1621.51Z"/><path class="cls-19" d="M651.26,1638.88s82.28,3.2,90.39-3.64-1.39-49-11.95-52.09-75.55,41.57-75.55,41.57Z"/><path class="cls-11" d="M685.6,1626.23c.24-7.68,13.62-18.5,17.07-25.42a41.1,41.1,0,0,1,9.31-11.7c-22.8,11.57-57.83,35.61-57.83,35.61l-2.89,14.16s24.68,1,48.34.71C698.13,1634.23,685.44,1631.77,685.6,1626.23Z"/><path class="cls-6" d="M668.54,1617.35,703.11,1604l-31.22,20a3.72,3.72,0,1,1-4-6.26A4.14,4.14,0,0,1,668.54,1617.35Z"/><path class="cls-6" d="M670.41,1630.82l35.38.74L671,1638.19a3.72,3.72,0,1,1-1.4-7.31A3.34,3.34,0,0,1,670.41,1630.82Z"/><path class="cls-6" d="M670.66,1622.58l24.15-1.75-22.5,9a3.75,3.75,0,0,1-2.77-7A4,4,0,0,1,670.66,1622.58Z"/><path class="cls-19" d="M664,1630.32c0,7.48-10,13.55-22.35,13.55s-22.35-6.07-22.35-13.55,10-13.55,22.35-13.55S664,1622.83,664,1630.32Z"/><path class="cls-12" d="M657.89,1558c-4.38-4.58-12.4-4.87-18.28-4.88-4.31,0-12.44-.09-14.93,4.32a.11.11,0,0,0,.07.16,23.09,23.09,0,0,0,7.19.28,43.71,43.71,0,0,1,13.13,1.4c3.5.87,6.51,2.81,9.89,3.74a3,3,0,0,0,3.7-2.1A3,3,0,0,0,657.89,1558Z"/><path class="cls-12" d="M704.39,1555.57c-4.58-3.34-13.79-8.48-19.65-6-.64.28-1,1.23-.21,1.63,4.93,2.57,10.16,4,14.94,7.07a31.09,31.09,0,0,1,8,7.45c1.36,1.83,1.6,4,3.59,5.3a1.9,1.9,0,0,0,2.58-.68C717,1565.12,707.88,1558.1,704.39,1555.57Z"/><path class="cls-12" d="M732.14,1593.75c-2.14-2.51-6.19-5-9.59-3.84a1.33,1.33,0,0,0-.58,2.19c1.58,1.94,3.67,3.44,5.27,5.41,1.81,2.23,2.1,4.71,2.86,7.37s4.94,2.88,5.57,0C736.53,1600.91,734.69,1596.76,732.14,1593.75Z"/><path class="cls-12" d="M602.25,1553.14c-.75-5.43-8.28-5.09-12-3.63s-8.82,4.41-11.29,7.85a1,1,0,0,0,.58,1.44c2.89.6,5.84-1.62,8.33-2.79,2.08-1,4.11-2.07,6.43-2.3s3.33,1.54,5.29,2.14C601.32,1556.4,602.47,1554.69,602.25,1553.14Z"/><path class="cls-12" d="M553.54,1596.5c-8.27-.33-13,10.35-10.41,17.25a1.12,1.12,0,0,0,2.14,0c1-2.41,2-4.87,3-7.23s2.53-4.06,5.26-3.8C557.49,1603.09,557.58,1596.66,553.54,1596.5Z"/><rect class="cls-20" x="480.24" y="1686.08" width="320.29" height="229.53"/><path class="cls-21" d="M724.78,1851.1c-26.21-.34-51.71-6.8-71-25.47-8.55-8.27-15.77-17.85-22.54-27.58-3.55-5.1-7-10.25-10.52-15.36-2.56,5.82-5,12.36-6.67,15.62-5.89,11.59-12.71,23-21.49,32.63-14.33,15.81-34.57,29.22-56.72,29.06-20.83-.14-40.56-11-55.59-27v82.6H800.53V1810.53C781.65,1833.86,757.91,1851.53,724.78,1851.1Z"/><path class="cls-22" d="M497.48,1749.15c0,13.5,14.92,32.15,29.71,38.5,16.19,7,32.29-.63,43-11,7.76-7.5,13.31-16.28,18.38-25.09C593,1744,597,1735,605.37,1729.67c21.11-13.5,37.12,4.55,48.1,17.54,8.06,9.55,16.37,21.6,28.54,28.23,12.81,7,31,10.53,46.37,7.86,32.55-5.63,48.79-32.29,63.75-54.21v-43H488.63v51C493.69,1739.18,497.46,1743.19,497.48,1749.15Z"/><path class="cls-6" d="M491.69,1685.63a4,4,0,1,1-4-4A4,4,0,0,1,491.69,1685.63Z"/><path class="cls-6" d="M524,1685.63a4,4,0,1,1-4-4A4,4,0,0,1,524,1685.63Z"/><circle class="cls-6" cx="552.39" cy="1685.63" r="4.01"/><path class="cls-6" d="M588.74,1685.63a4,4,0,1,1-4-4A4,4,0,0,1,588.74,1685.63Z"/><path class="cls-6" d="M621.09,1685.63a4,4,0,1,1-4-4A4,4,0,0,1,621.09,1685.63Z"/><path class="cls-6" d="M653.45,1685.63a4,4,0,1,1-4-4A4,4,0,0,1,653.45,1685.63Z"/><path class="cls-6" d="M685.8,1685.63a4,4,0,1,1-4-4A4,4,0,0,1,685.8,1685.63Z"/><path class="cls-6" d="M718.16,1685.63a4,4,0,1,1-4-4A4,4,0,0,1,718.16,1685.63Z"/><path class="cls-6" d="M750.5,1685.63a4,4,0,1,1-4-4A4,4,0,0,1,750.5,1685.63Z"/><circle class="cls-6" cx="778.85" cy="1685.63" r="4.01"/><path class="cls-6" d="M504.87,1701.65a4,4,0,1,1-4-4A4,4,0,0,1,504.87,1701.65Z"/><path class="cls-6" d="M537.22,1701.65a4,4,0,1,1-4-4A4,4,0,0,1,537.22,1701.65Z"/><path class="cls-6" d="M569.58,1701.65a4,4,0,1,1-4-4A4,4,0,0,1,569.58,1701.65Z"/><path class="cls-6" d="M601.92,1701.65a4,4,0,1,1-4-4A4,4,0,0,1,601.92,1701.65Z"/><path class="cls-6" d="M634.28,1701.65a4,4,0,1,1-4-4A4,4,0,0,1,634.28,1701.65Z"/><path class="cls-6" d="M666.63,1701.65a4,4,0,1,1-4-4A4,4,0,0,1,666.63,1701.65Z"/><path class="cls-6" d="M699,1701.65a4,4,0,1,1-4-4A4,4,0,0,1,699,1701.65Z"/><path class="cls-6" d="M731.33,1701.65a4,4,0,1,1-4-4A4,4,0,0,1,731.33,1701.65Z"/><path class="cls-6" d="M763.69,1701.65a4,4,0,1,1-4-4A4,4,0,0,1,763.69,1701.65Z"/><path class="cls-6" d="M796,1701.65a4,4,0,1,1-4-4A4,4,0,0,1,796,1701.65Z"/><path class="cls-6" d="M491.69,1720.19a4,4,0,1,1-4-4A4,4,0,0,1,491.69,1720.19Z"/><path class="cls-6" d="M524,1720.19a4,4,0,1,1-4-4A4,4,0,0,1,524,1720.19Z"/><circle class="cls-6" cx="552.39" cy="1720.19" r="4.01"/><path class="cls-6" d="M588.74,1720.19a4,4,0,1,1-4-4A4,4,0,0,1,588.74,1720.19Z"/><path class="cls-6" d="M621.09,1720.19a4,4,0,1,1-4-4A4,4,0,0,1,621.09,1720.19Z"/><path class="cls-6" d="M653.45,1720.19a4,4,0,1,1-4-4A4,4,0,0,1,653.45,1720.19Z"/><path class="cls-6" d="M685.8,1720.19a4,4,0,1,1-4-4A4,4,0,0,1,685.8,1720.19Z"/><path class="cls-6" d="M718.16,1720.19a4,4,0,1,1-4-4A4,4,0,0,1,718.16,1720.19Z"/><path class="cls-6" d="M750.5,1720.19a4,4,0,1,1-4-4A4,4,0,0,1,750.5,1720.19Z"/><circle class="cls-6" cx="778.85" cy="1720.19" r="4.01"/><path class="cls-6" d="M504.87,1736.21a4,4,0,1,1-4-4A4,4,0,0,1,504.87,1736.21Z"/><path class="cls-6" d="M537.22,1736.21a4,4,0,1,1-4-4A4,4,0,0,1,537.22,1736.21Z"/><path class="cls-6" d="M569.58,1736.21a4,4,0,1,1-4-4A4,4,0,0,1,569.58,1736.21Z"/><path class="cls-6" d="M601.92,1736.21a4,4,0,1,1-4-4A4,4,0,0,1,601.92,1736.21Z"/><path class="cls-6" d="M634.28,1736.21a4,4,0,1,1-4-4A4,4,0,0,1,634.28,1736.21Z"/><path class="cls-6" d="M666.63,1736.21a4,4,0,1,1-4-4A4,4,0,0,1,666.63,1736.21Z"/><path class="cls-6" d="M699,1736.21a4,4,0,1,1-4-4A4,4,0,0,1,699,1736.21Z"/><path class="cls-6" d="M731.33,1736.21a4,4,0,1,1-4-4A4,4,0,0,1,731.33,1736.21Z"/><path class="cls-6" d="M763.69,1736.21a4,4,0,1,1-4-4A4,4,0,0,1,763.69,1736.21Z"/><path class="cls-6" d="M796,1736.21a4,4,0,1,1-4-4A4,4,0,0,1,796,1736.21Z"/><path class="cls-6" d="M491.69,1754.74a4,4,0,1,1-4-4A4,4,0,0,1,491.69,1754.74Z"/><path class="cls-6" d="M524,1754.74a4,4,0,1,1-4-4A4,4,0,0,1,524,1754.74Z"/><path class="cls-6" d="M556.39,1754.74a4,4,0,1,1-4-4A4,4,0,0,1,556.39,1754.74Z"/><path class="cls-6" d="M588.74,1754.74a4,4,0,1,1-4-4A4,4,0,0,1,588.74,1754.74Z"/><path class="cls-6" d="M621.09,1754.74a4,4,0,1,1-4-4A4,4,0,0,1,621.09,1754.74Z"/><path class="cls-6" d="M653.45,1754.74a4,4,0,1,1-4-4A4,4,0,0,1,653.45,1754.74Z"/><path class="cls-6" d="M685.8,1754.74a4,4,0,1,1-4-4A4,4,0,0,1,685.8,1754.74Z"/><path class="cls-6" d="M718.16,1754.74a4,4,0,1,1-4-4A4,4,0,0,1,718.16,1754.74Z"/><path class="cls-6" d="M750.5,1754.74a4,4,0,1,1-4-4A4,4,0,0,1,750.5,1754.74Z"/><path class="cls-6" d="M782.86,1754.74a4,4,0,1,1-4-4A4,4,0,0,1,782.86,1754.74Z"/><path class="cls-6" d="M504.87,1770.77a4,4,0,1,1-4-4A4,4,0,0,1,504.87,1770.77Z"/><path class="cls-6" d="M537.22,1770.77a4,4,0,1,1-4-4A4,4,0,0,1,537.22,1770.77Z"/><path class="cls-6" d="M569.58,1770.77a4,4,0,1,1-4-4A4,4,0,0,1,569.58,1770.77Z"/><path class="cls-6" d="M601.92,1770.77a4,4,0,1,1-4-4A4,4,0,0,1,601.92,1770.77Z"/><path class="cls-6" d="M634.28,1770.77a4,4,0,1,1-4-4A4,4,0,0,1,634.28,1770.77Z"/><path class="cls-6" d="M666.63,1770.77a4,4,0,1,1-4-4A4,4,0,0,1,666.63,1770.77Z"/><path class="cls-6" d="M699,1770.77a4,4,0,1,1-4-4A4,4,0,0,1,699,1770.77Z"/><path class="cls-6" d="M731.33,1770.77a4,4,0,1,1-4-4A4,4,0,0,1,731.33,1770.77Z"/><path class="cls-6" d="M763.69,1770.77a4,4,0,1,1-4-4A4,4,0,0,1,763.69,1770.77Z"/><path class="cls-6" d="M796,1770.77a4,4,0,1,1-4-4A4,4,0,0,1,796,1770.77Z"/><path class="cls-6" d="M491.69,1789.3a4,4,0,1,1-4-4A4,4,0,0,1,491.69,1789.3Z"/><path class="cls-6" d="M524,1789.3a4,4,0,1,1-4-4A4,4,0,0,1,524,1789.3Z"/><path class="cls-6" d="M556.39,1789.3a4,4,0,1,1-4-4A4,4,0,0,1,556.39,1789.3Z"/><path class="cls-6" d="M588.74,1789.3a4,4,0,1,1-4-4A4,4,0,0,1,588.74,1789.3Z"/><path class="cls-6" d="M621.09,1789.3a4,4,0,1,1-4-4A4,4,0,0,1,621.09,1789.3Z"/><path class="cls-6" d="M653.45,1789.3a4,4,0,1,1-4-4A4,4,0,0,1,653.45,1789.3Z"/><path class="cls-6" d="M685.8,1789.3a4,4,0,1,1-4-4A4,4,0,0,1,685.8,1789.3Z"/><path class="cls-6" d="M718.16,1789.3a4,4,0,1,1-4-4A4,4,0,0,1,718.16,1789.3Z"/><path class="cls-6" d="M750.5,1789.3a4,4,0,1,1-4-4A4,4,0,0,1,750.5,1789.3Z"/><path class="cls-6" d="M782.86,1789.3a4,4,0,1,1-4-4A4,4,0,0,1,782.86,1789.3Z"/><path class="cls-6" d="M504.87,1805.33a4,4,0,1,1-4-4A4,4,0,0,1,504.87,1805.33Z"/><path class="cls-6" d="M537.22,1805.33a4,4,0,1,1-4-4A4,4,0,0,1,537.22,1805.33Z"/><path class="cls-6" d="M569.58,1805.33a4,4,0,1,1-4-4A4,4,0,0,1,569.58,1805.33Z"/><path class="cls-6" d="M601.92,1805.33a4,4,0,1,1-4-4A4,4,0,0,1,601.92,1805.33Z"/><path class="cls-6" d="M634.28,1805.33a4,4,0,1,1-4-4A4,4,0,0,1,634.28,1805.33Z"/><path class="cls-6" d="M666.63,1805.33a4,4,0,1,1-4-4A4,4,0,0,1,666.63,1805.33Z"/><path class="cls-6" d="M699,1805.33a4,4,0,1,1-4-4A4,4,0,0,1,699,1805.33Z"/><path class="cls-6" d="M731.33,1805.33a4,4,0,1,1-4-4A4,4,0,0,1,731.33,1805.33Z"/><path class="cls-6" d="M763.69,1805.33a4,4,0,1,1-4-4A4,4,0,0,1,763.69,1805.33Z"/><path class="cls-6" d="M796,1805.33a4,4,0,1,1-4-4A4,4,0,0,1,796,1805.33Z"/><path class="cls-6" d="M491.69,1823.86a4,4,0,1,1-4-4A4,4,0,0,1,491.69,1823.86Z"/><path class="cls-6" d="M524,1823.86a4,4,0,1,1-4-4A4,4,0,0,1,524,1823.86Z"/><path class="cls-6" d="M556.39,1823.86a4,4,0,1,1-4-4A4,4,0,0,1,556.39,1823.86Z"/><path class="cls-6" d="M588.74,1823.86a4,4,0,1,1-4-4A4,4,0,0,1,588.74,1823.86Z"/><path class="cls-6" d="M621.09,1823.86a4,4,0,1,1-4-4A4,4,0,0,1,621.09,1823.86Z"/><path class="cls-6" d="M653.45,1823.86a4,4,0,1,1-4-4A4,4,0,0,1,653.45,1823.86Z"/><path class="cls-6" d="M685.8,1823.86a4,4,0,1,1-4-4A4,4,0,0,1,685.8,1823.86Z"/><path class="cls-6" d="M718.16,1823.86a4,4,0,1,1-4-4A4,4,0,0,1,718.16,1823.86Z"/><path class="cls-6" d="M750.5,1823.86a4,4,0,1,1-4-4A4,4,0,0,1,750.5,1823.86Z"/><path class="cls-6" d="M782.86,1823.86a4,4,0,1,1-4-4A4,4,0,0,1,782.86,1823.86Z"/><path class="cls-6" d="M504.87,1839.89a4,4,0,1,1-4-4A4,4,0,0,1,504.87,1839.89Z"/><path class="cls-6" d="M537.22,1839.89a4,4,0,1,1-4-4A4,4,0,0,1,537.22,1839.89Z"/><path class="cls-6" d="M569.58,1839.89a4,4,0,1,1-4-4A4,4,0,0,1,569.58,1839.89Z"/><path class="cls-6" d="M601.92,1839.89a4,4,0,1,1-4-4A4,4,0,0,1,601.92,1839.89Z"/><path class="cls-6" d="M634.28,1839.89a4,4,0,1,1-4-4A4,4,0,0,1,634.28,1839.89Z"/><path class="cls-6" d="M666.63,1839.89a4,4,0,1,1-4-4A4,4,0,0,1,666.63,1839.89Z"/><path class="cls-6" d="M699,1839.89a4,4,0,1,1-4-4A4,4,0,0,1,699,1839.89Z"/><path class="cls-6" d="M731.33,1839.89a4,4,0,1,1-4-4A4,4,0,0,1,731.33,1839.89Z"/><path class="cls-6" d="M763.69,1839.89a4,4,0,1,1-4-4A4,4,0,0,1,763.69,1839.89Z"/><path class="cls-6" d="M796,1839.89a4,4,0,1,1-4-4A4,4,0,0,1,796,1839.89Z"/><path class="cls-6" d="M491.69,1858.42a4,4,0,1,1-4-4A4,4,0,0,1,491.69,1858.42Z"/><path class="cls-6" d="M524,1858.42a4,4,0,1,1-4-4A4,4,0,0,1,524,1858.42Z"/><path class="cls-6" d="M556.39,1858.42a4,4,0,1,1-4-4A4,4,0,0,1,556.39,1858.42Z"/><path class="cls-6" d="M588.74,1858.42a4,4,0,1,1-4-4A4,4,0,0,1,588.74,1858.42Z"/><path class="cls-6" d="M621.09,1858.42a4,4,0,1,1-4-4A4,4,0,0,1,621.09,1858.42Z"/><path class="cls-6" d="M653.45,1858.42a4,4,0,1,1-4-4A4,4,0,0,1,653.45,1858.42Z"/><path class="cls-6" d="M685.8,1858.42a4,4,0,1,1-4-4A4,4,0,0,1,685.8,1858.42Z"/><path class="cls-6" d="M718.16,1858.42a4,4,0,1,1-4-4A4,4,0,0,1,718.16,1858.42Z"/><path class="cls-6" d="M750.5,1858.42a4,4,0,1,1-4-4A4,4,0,0,1,750.5,1858.42Z"/><path class="cls-6" d="M782.86,1858.42a4,4,0,1,1-4-4A4,4,0,0,1,782.86,1858.42Z"/><path class="cls-6" d="M504.87,1874.44a4,4,0,1,1-4-4A4,4,0,0,1,504.87,1874.44Z"/><path class="cls-6" d="M537.22,1874.44a4,4,0,1,1-4-4A4,4,0,0,1,537.22,1874.44Z"/><path class="cls-6" d="M569.58,1874.44a4,4,0,1,1-4-4A4,4,0,0,1,569.58,1874.44Z"/><path class="cls-6" d="M601.92,1874.44a4,4,0,1,1-4-4A4,4,0,0,1,601.92,1874.44Z"/><path class="cls-6" d="M634.28,1874.44a4,4,0,1,1-4-4A4,4,0,0,1,634.28,1874.44Z"/><path class="cls-6" d="M666.63,1874.44a4,4,0,1,1-4-4A4,4,0,0,1,666.63,1874.44Z"/><path class="cls-6" d="M699,1874.44a4,4,0,1,1-4-4A4,4,0,0,1,699,1874.44Z"/><path class="cls-6" d="M731.33,1874.44a4,4,0,1,1-4-4A4,4,0,0,1,731.33,1874.44Z"/><path class="cls-6" d="M763.69,1874.44a4,4,0,1,1-4-4A4,4,0,0,1,763.69,1874.44Z"/><path class="cls-6" d="M796,1874.44a4,4,0,1,1-4-4A4,4,0,0,1,796,1874.44Z"/><path class="cls-6" d="M491.69,1893a4,4,0,1,1-4-4A4,4,0,0,1,491.69,1893Z"/><path class="cls-6" d="M524,1893a4,4,0,1,1-4-4A4,4,0,0,1,524,1893Z"/><path class="cls-6" d="M556.39,1893a4,4,0,1,1-4-4A4,4,0,0,1,556.39,1893Z"/><path class="cls-6" d="M588.74,1893a4,4,0,1,1-4-4A4,4,0,0,1,588.74,1893Z"/><path class="cls-6" d="M621.09,1893a4,4,0,1,1-4-4A4,4,0,0,1,621.09,1893Z"/><path class="cls-6" d="M653.45,1893a4,4,0,1,1-4-4A4,4,0,0,1,653.45,1893Z"/><path class="cls-6" d="M685.8,1893a4,4,0,1,1-4-4A4,4,0,0,1,685.8,1893Z"/><path class="cls-6" d="M718.16,1893a4,4,0,1,1-4-4A4,4,0,0,1,718.16,1893Z"/><path class="cls-6" d="M750.5,1893a4,4,0,1,1-4-4A4,4,0,0,1,750.5,1893Z"/><path class="cls-6" d="M782.86,1893a4,4,0,1,1-4-4A4,4,0,0,1,782.86,1893Z"/><path class="cls-6" d="M504.87,1909a4,4,0,1,1-4-4A4,4,0,0,1,504.87,1909Z"/><path class="cls-6" d="M537.22,1909a4,4,0,1,1-4-4A4,4,0,0,1,537.22,1909Z"/><path class="cls-6" d="M569.58,1909a4,4,0,1,1-4-4A4,4,0,0,1,569.58,1909Z"/><path class="cls-6" d="M601.92,1909a4,4,0,1,1-4-4A4,4,0,0,1,601.92,1909Z"/><path class="cls-6" d="M634.28,1909a4,4,0,1,1-4-4A4,4,0,0,1,634.28,1909Z"/><path class="cls-6" d="M666.63,1909a4,4,0,1,1-4-4A4,4,0,0,1,666.63,1909Z"/><path class="cls-6" d="M699,1909a4,4,0,1,1-4-4A4,4,0,0,1,699,1909Z"/><path class="cls-6" d="M731.33,1909a4,4,0,1,1-4-4A4,4,0,0,1,731.33,1909Z"/><path class="cls-6" d="M763.69,1909a4,4,0,1,1-4-4A4,4,0,0,1,763.69,1909Z"/><path class="cls-6" d="M796,1909a4,4,0,1,1-4-4A4,4,0,0,1,796,1909Z"/><rect class="cls-20" x="470.92" y="1638.33" width="338.92" height="47.76"/><rect class="cls-13" x="470.92" y="1638.33" width="338.92" height="17.47"/><rect class="cls-19" x="608.36" y="1686.08" width="64.06" height="229.53"/><rect class="cls-23" x="608.36" y="1686.08" width="32.03" height="229.53"/><rect class="cls-23" x="608.36" y="1686.08" width="16.01" height="229.53"/><rect class="cls-19" x="601.36" y="1638.33" width="78.03" height="47.76"/><rect class="cls-23" x="601.36" y="1638.33" width="46.01" height="47.76"/><rect class="cls-23" x="601.36" y="1638.33" width="23.01" height="47.76"/><rect class="cls-24" x="480.24" y="1686.08" width="320.29" height="13.98"/><line class="cls-25" x1="41.63" y1="1918.79" x2="1096.94" y2="1918.79"/><line class="cls-25" x1="235.28" y1="1962.4" x2="613.83" y2="1962.4"/><line class="cls-25" x1="655.96" y1="1970.15" x2="696.47" y2="1970.15"/><line class="cls-25" x1="758.74" y1="1970.15" x2="844.48" y2="1970.15"/><line class="cls-25" x1="423.42" y1="2009.05" x2="811.01" y2="2009.05"/><path class="cls-26" d="M280.11,1571.85s-83.7-66.79-85.85-80.41,43.06-47.07,56-41.1,39,105.12,39,105.12Z"/><path class="cls-11" d="M257.07,1530.21c6.3-7.76,2.33-29.79,4.8-39.52,1.68-6.57,1.5-13,.79-19.43,12.6,30.77,26.64,84.2,26.64,84.2l-9.19,16.39s-25.11-20-48.17-40.4C237.94,1527.43,252.53,1535.8,257.07,1530.21Z"/><path class="cls-6" d="M286,1557.09l-27.22-63.66,33.86,60.39a3.7,3.7,0,0,1-6.46,3.62A2.31,2.31,0,0,1,286,1557.09Z"/><path class="cls-6" d="M262,1553.58l-29.36-35.28,34.65,30.11a3.71,3.71,0,1,1-4.87,5.6A4.26,4.26,0,0,1,262,1553.58Z"/><path class="cls-6" d="M273.8,1560.14l-21.21-43.08,27.57,39.31a3.71,3.71,0,0,1-6.07,4.26A3.5,3.5,0,0,1,273.8,1560.14Z"/><path class="cls-26" d="M287.78,1579.86s-107,4.16-117.53-4.73,1.81-63.77,15.54-67.73,98.23,54,98.23,54Z"/><path class="cls-11" d="M243.12,1563.41c-.3-10-17.71-24.06-22.19-33.05-3-6.07-7.37-10.81-12.11-15.22,29.65,15,75.2,46.3,75.2,46.3l3.76,18.42s-32.09,1.25-62.86.92C226.83,1573.81,243.35,1570.61,243.12,1563.41Z"/><path class="cls-6" d="M275.55,1561.66l-55.19-27.19,58.05,20.37a3.71,3.71,0,0,1-2.45,7A3.89,3.89,0,0,1,275.55,1561.66Z"/><path class="cls-6" d="M262.16,1577.85l-45.29-7.5,45.91.13a3.71,3.71,0,1,1,0,7.42A3.92,3.92,0,0,1,262.16,1577.85Z"/><path class="cls-6" d="M281.25,1571.46l-50.11-15.07,51.73,7.85a3.71,3.71,0,0,1-1.11,7.34A4.21,4.21,0,0,1,281.25,1571.46Z"/><path class="cls-26" d="M322.25,1570.4s83.69-66.79,85.85-80.41-43.06-47.07-56-41.1-39,105.12-39,105.12Z"/><path class="cls-11" d="M345.29,1528.76c-6.3-7.75-2.32-29.78-4.81-39.52-1.67-6.57-1.49-13-.78-19.43-12.61,30.77-26.64,84.2-26.64,84.2l9.19,16.39s25.11-20,48.17-40.4C364.42,1526,349.83,1534.35,345.29,1528.76Z"/><path class="cls-6" d="M322,1534.94l21.61-43-14.76,45.77a3.71,3.71,0,1,1-7.06-2.28A3.44,3.44,0,0,1,322,1534.94Z"/><path class="cls-6" d="M335,1547l34.65-30.11-29.36,35.29a3.71,3.71,0,1,1-5.71-4.75A4.26,4.26,0,0,1,335,1547Z"/><path class="cls-6" d="M322.2,1554.92l27.57-39.31-21.2,43.08a3.71,3.71,0,1,1-6.66-3.28A3,3,0,0,1,322.2,1554.92Z"/><path class="cls-26" d="M315.16,1580.28s28-103.35,21.68-115.61-62.56-12.49-69.49,0,30.71,107.84,30.71,107.84Z"/><path class="cls-11" d="M309.11,1533.08c-9.65-2.52-19.48-22.64-27.24-29-5.24-4.31-8.89-9.6-12.12-15.2,8,32.26,28.31,83.65,28.31,83.65l17.1,7.77s8.4-31,15-61.06C322.9,1519.53,316.09,1534.9,309.11,1533.08Z"/><path class="cls-6" d="M294,1551.85l-8-47.43,15.17,45.65a3.71,3.71,0,1,1-7,2.33A3.41,3.41,0,0,1,294,1551.85Z"/><path class="cls-6" d="M311.62,1553.82,321.75,1509l-2.8,45.83a3.71,3.71,0,1,1-7.41-.45A3.94,3.94,0,0,1,311.62,1553.82Z"/><path class="cls-6" d="M301.26,1551l3.7-31.12,3.7,31.12a3.73,3.73,0,1,1-7.4.89A3.78,3.78,0,0,1,301.26,1551Z"/><path class="cls-26" d="M314.58,1573.54s107,4.16,117.53-4.73-1.81-63.77-15.54-67.73-98.23,54-98.23,54Z"/><path class="cls-11" d="M359.24,1557.09c.3-10,17.7-24.06,22.19-33,3-6.07,7.37-10.81,12.1-15.22-29.65,15-75.19,46.3-75.19,46.3l-3.76,18.42s32.09,1.25,62.86.92C375.52,1567.49,359,1564.29,359.24,1557.09Z"/><path class="cls-6" d="M323.71,1553.51,382,1528.15l-54.95,31.95a3.7,3.7,0,1,1-3.72-6.4A1.93,1.93,0,0,1,323.71,1553.51Z"/><path class="cls-6" d="M321.88,1566.72l63.61-2.69-62.87,10a3.71,3.71,0,1,1-1.17-7.32A3.13,3.13,0,0,1,321.88,1566.72Z"/><path class="cls-6" d="M317.67,1558.88l53.55-8.81-51.86,16a3.7,3.7,0,1,1-2.18-7.08A3.89,3.89,0,0,1,317.67,1558.88Z"/><path class="cls-26" d="M331.19,1562.41c0,9.73-13,17.62-29.05,17.62s-29.06-7.89-29.06-17.62,13-17.62,29.06-17.62S331.19,1552.68,331.19,1562.41Z"/><path class="cls-12" d="M323.2,1468.41c-5.69-5.94-16.12-6.33-23.77-6.34-5.59,0-16.17-.12-19.4,5.61a.14.14,0,0,0,.09.21c2.89.81,6.37.54,9.34.36a57.13,57.13,0,0,1,17.07,1.83c4.55,1.14,8.47,3.66,12.86,4.86,2.32.64,4-.74,4.81-2.72A3.88,3.88,0,0,0,323.2,1468.41Z"/><path class="cls-12" d="M383.66,1465.21c-6-4.34-17.93-11-25.54-7.82-.84.36-1.27,1.6-.28,2.12,6.41,3.34,13.21,5.13,19.43,9.19a41.12,41.12,0,0,1,10.39,9.69c1.76,2.38,2.06,5.25,4.65,6.89a2.48,2.48,0,0,0,3.36-.88C400.06,1477.64,388.2,1468.51,383.66,1465.21Z"/><path class="cls-12" d="M419.74,1514.87c-2.78-3.27-8-6.51-12.47-5a1.73,1.73,0,0,0-.75,2.85c2.06,2.52,4.77,4.46,6.85,7,2.36,2.91,2.74,6.13,3.72,9.59s6.43,3.73,7.24,0C425.45,1524.18,423.06,1518.78,419.74,1514.87Z"/><path class="cls-12" d="M250.86,1462.06c-1-7.07-10.76-6.63-15.65-4.72s-11.48,5.74-14.68,10.21a1.27,1.27,0,0,0,.75,1.86c3.76.78,7.59-2.09,10.84-3.62,2.69-1.27,5.32-2.69,8.34-3,2.87-.28,4.34,2,6.88,2.78C249.65,1466.29,251.14,1464.08,250.86,1462.06Z"/><path class="cls-12" d="M187.52,1518.44c-10.75-.43-16.88,13.45-13.53,22.42a1.45,1.45,0,0,0,2.78,0c1.28-3.12,2.53-6.33,3.92-9.4s3.28-5.27,6.83-4.94C192.65,1527,192.77,1518.64,187.52,1518.44Z"/><rect class="cls-7" x="92.41" y="1631.73" width="399.07" height="285.98"/><path class="cls-16" d="M488.57,1832.89c-18.87,20-44.89,35.68-73,36.51-29.78.86-56.1-14.58-72.61-39-9.5-14-15.16-29.79-22.82-44.79-4.52-8.85-11.58-24.65-22.54-27-.72-.15-1.91-.32-5.61,2.49a48.24,48.24,0,0,0-6.89,7.63c-6.58,9.33-12,19.34-17.32,29.44-13.06,24.84-29.39,47.36-57.75,55.85-31.38,9.41-64.66,1-89.86-19.34-12.2-9.84-20.73-21.94-27.74-35v118H491.48v-88.06C490.52,1830.74,489.57,1831.83,488.57,1832.89Z"/><path class="cls-6" d="M97.74,1875.22a9.29,9.29,0,0,0-5.24,1.66v27.45c4.87-3.49,14.7-11.55,14.7-19.74A9.42,9.42,0,0,0,97.74,1875.22Z"/><path class="cls-6" d="M178.32,1875.22a9.47,9.47,0,0,0-7.92,4.28,9.46,9.46,0,0,0-17.37,5.09c0,10.4,17.37,21.54,17.37,21.54s17.37-10.64,17.37-21.54A9.41,9.41,0,0,0,178.32,1875.22Z"/><path class="cls-6" d="M258.9,1875.22a9.48,9.48,0,0,0-7.93,4.28,9.44,9.44,0,0,0-17.34,5.09c0,10.4,17.34,21.54,17.34,21.54s17.38-10.64,17.38-21.54A9.41,9.41,0,0,0,258.9,1875.22Z"/><path class="cls-6" d="M339.47,1875.22a9.45,9.45,0,0,0-7.91,4.28,9.45,9.45,0,0,0-17.36,5.09c0,10.4,17.36,21.54,17.36,21.54s17.36-10.64,17.36-21.54A9.41,9.41,0,0,0,339.47,1875.22Z"/><path class="cls-6" d="M420.06,1875.22a9.44,9.44,0,0,0-7.92,4.28,9.45,9.45,0,0,0-17.36,5.09c0,10.4,17.36,21.54,17.36,21.54s17.36-10.64,17.36-21.54A9.4,9.4,0,0,0,420.06,1875.22Z"/><path class="cls-6" d="M491.44,1878a9.42,9.42,0,0,0-16.09,6.6c0,8.7,12.14,17.9,16.09,20.68Z"/><path class="cls-6" d="M139.31,1822.28a9.44,9.44,0,0,0-7.91,4.29,9.45,9.45,0,0,0-17.37,5.09c0,10.39,17.37,21.54,17.37,21.54s17.36-10.65,17.36-21.54A9.41,9.41,0,0,0,139.31,1822.28Z"/><path class="cls-6" d="M219.89,1822.28a9.44,9.44,0,0,0-7.91,4.29,9.46,9.46,0,0,0-17.38,5.09c0,10.39,17.38,21.54,17.38,21.54s17.36-10.65,17.36-21.54A9.42,9.42,0,0,0,219.89,1822.28Z"/><path class="cls-6" d="M300.47,1822.28a9.47,9.47,0,0,0-7.92,4.29,9.45,9.45,0,0,0-17.36,5.09c0,10.39,17.36,21.54,17.36,21.54s17.37-10.65,17.37-21.54A9.41,9.41,0,0,0,300.47,1822.28Z"/><path class="cls-6" d="M381.05,1822.28a9.47,9.47,0,0,0-7.92,4.29,9.44,9.44,0,0,0-17.35,5.09c0,10.39,17.35,21.54,17.35,21.54s17.36-10.65,17.36-21.54A9.41,9.41,0,0,0,381.05,1822.28Z"/><path class="cls-6" d="M461.63,1822.28a9.43,9.43,0,0,0-7.91,4.29,9.45,9.45,0,0,0-17.37,5.09c0,10.39,17.37,21.54,17.37,21.54s17.36-10.65,17.36-21.54A9.41,9.41,0,0,0,461.63,1822.28Z"/><path class="cls-6" d="M97.74,1778.77a9.3,9.3,0,0,0-5.24,1.67v27.44c4.87-3.48,14.7-11.53,14.7-19.73A9.42,9.42,0,0,0,97.74,1778.77Z"/><path class="cls-6" d="M178.32,1778.77a9.47,9.47,0,0,0-7.92,4.29,9.45,9.45,0,0,0-17.37,5.09c0,10.39,17.37,21.54,17.37,21.54s17.37-10.64,17.37-21.54A9.42,9.42,0,0,0,178.32,1778.77Z"/><path class="cls-6" d="M258.9,1778.77a9.49,9.49,0,0,0-7.93,4.29,9.43,9.43,0,0,0-17.34,5.09c0,10.39,17.34,21.54,17.34,21.54s17.38-10.64,17.38-21.54A9.41,9.41,0,0,0,258.9,1778.77Z"/><path class="cls-6" d="M339.47,1778.77a9.46,9.46,0,0,0-7.91,4.29,9.45,9.45,0,0,0-17.36,5.09c0,10.39,17.36,21.54,17.36,21.54s17.36-10.64,17.36-21.54A9.41,9.41,0,0,0,339.47,1778.77Z"/><path class="cls-6" d="M420.06,1778.77a9.45,9.45,0,0,0-7.92,4.29,9.45,9.45,0,0,0-17.36,5.09c0,10.39,17.36,21.54,17.36,21.54s17.36-10.64,17.36-21.54A9.41,9.41,0,0,0,420.06,1778.77Z"/><path class="cls-6" d="M491.44,1781.55a9.41,9.41,0,0,0-16.09,6.6c0,8.7,12.14,17.9,16.09,20.68Z"/><path class="cls-6" d="M139.31,1725.84a9.42,9.42,0,0,0-7.91,4.29,9.45,9.45,0,0,0-17.37,5.08c0,10.4,17.37,21.55,17.37,21.55s17.36-10.65,17.36-21.55A9.41,9.41,0,0,0,139.31,1725.84Z"/><path class="cls-6" d="M219.89,1725.84a9.42,9.42,0,0,0-7.91,4.29,9.46,9.46,0,0,0-17.38,5.08c0,10.4,17.38,21.55,17.38,21.55s17.36-10.65,17.36-21.55A9.42,9.42,0,0,0,219.89,1725.84Z"/><path class="cls-6" d="M300.47,1725.84a9.45,9.45,0,0,0-7.92,4.29,9.45,9.45,0,0,0-17.36,5.08c0,10.4,17.36,21.55,17.36,21.55s17.37-10.65,17.37-21.55A9.41,9.41,0,0,0,300.47,1725.84Z"/><path class="cls-6" d="M381.05,1725.84a9.45,9.45,0,0,0-7.92,4.29,9.44,9.44,0,0,0-17.35,5.08c0,10.4,17.35,21.55,17.35,21.55s17.36-10.65,17.36-21.55A9.4,9.4,0,0,0,381.05,1725.84Z"/><path class="cls-6" d="M461.63,1725.84a9.41,9.41,0,0,0-7.91,4.29,9.45,9.45,0,0,0-17.37,5.08c0,10.4,17.37,21.55,17.37,21.55s17.36-10.65,17.36-21.55A9.41,9.41,0,0,0,461.63,1725.84Z"/><path class="cls-6" d="M97.74,1682.33A9.3,9.3,0,0,0,92.5,1684v27.44c4.87-3.49,14.7-11.53,14.7-19.73A9.42,9.42,0,0,0,97.74,1682.33Z"/><path class="cls-6" d="M178.32,1682.33a9.47,9.47,0,0,0-7.92,4.29,9.45,9.45,0,0,0-17.37,5.09c0,10.39,17.37,21.54,17.37,21.54s17.37-10.64,17.37-21.54A9.42,9.42,0,0,0,178.32,1682.33Z"/><path class="cls-6" d="M258.9,1682.33a9.49,9.49,0,0,0-7.93,4.29,9.43,9.43,0,0,0-17.34,5.09c0,10.39,17.34,21.54,17.34,21.54s17.38-10.64,17.38-21.54A9.41,9.41,0,0,0,258.9,1682.33Z"/><path class="cls-6" d="M339.47,1682.33a9.46,9.46,0,0,0-7.91,4.29,9.45,9.45,0,0,0-17.36,5.09c0,10.39,17.36,21.54,17.36,21.54s17.36-10.64,17.36-21.54A9.41,9.41,0,0,0,339.47,1682.33Z"/><path class="cls-6" d="M420.06,1682.33a9.45,9.45,0,0,0-7.92,4.29,9.45,9.45,0,0,0-17.36,5.09c0,10.39,17.36,21.54,17.36,21.54s17.36-10.64,17.36-21.54A9.41,9.41,0,0,0,420.06,1682.33Z"/><path class="cls-6" d="M491.44,1685.11a9.41,9.41,0,0,0-16.09,6.6c0,8.7,12.14,17.9,16.09,20.67Z"/><path class="cls-6" d="M139.31,1629.4a9.43,9.43,0,0,0-7.91,4.28,9.46,9.46,0,0,0-17.37,5.1c0,10.39,17.37,21.54,17.37,21.54s17.36-10.65,17.36-21.54A9.41,9.41,0,0,0,139.31,1629.4Z"/><path class="cls-6" d="M219.89,1629.4a9.43,9.43,0,0,0-7.91,4.28,9.46,9.46,0,0,0-17.38,5.1c0,10.39,17.38,21.54,17.38,21.54s17.36-10.65,17.36-21.54A9.42,9.42,0,0,0,219.89,1629.4Z"/><path class="cls-6" d="M300.47,1629.4a9.47,9.47,0,0,0-7.92,4.28,9.45,9.45,0,0,0-17.36,5.1c0,10.39,17.36,21.54,17.36,21.54s17.37-10.65,17.37-21.54A9.41,9.41,0,0,0,300.47,1629.4Z"/><path class="cls-6" d="M381.05,1629.4a9.47,9.47,0,0,0-7.92,4.28,9.44,9.44,0,0,0-17.35,5.1c0,10.39,17.35,21.54,17.35,21.54s17.36-10.65,17.36-21.54A9.41,9.41,0,0,0,381.05,1629.4Z"/><path class="cls-6" d="M461.63,1629.4a9.42,9.42,0,0,0-7.91,4.28,9.46,9.46,0,0,0-17.37,5.1c0,10.39,17.37,21.54,17.37,21.54s17.36-10.65,17.36-21.54A9.41,9.41,0,0,0,461.63,1629.4Z"/><path class="cls-8" d="M159.41,1755c20.25,11,35.84-6,49.09-29.76,16.34-29.38,33.31-64.61,60.84-63.23,28.37,1.41,49.34,28.88,69.87,57.39,15.78,21.93,29.48,40,51.64,36.77,23.79-3.43,53.5-20.69,67.38-54.16,11-26.51,16.85-56.9,24.47-86H107.27a61.79,61.79,0,0,1-1.3,14C96.61,1675.41,134.05,1741.29,159.41,1755Z"/><rect class="cls-7" x="80.8" y="1572.23" width="422.28" height="59.5"/><rect class="cls-13" x="80.8" y="1572.23" width="422.28" height="21.77"/><rect class="cls-26" x="252.04" y="1631.73" width="79.81" height="285.98"/><rect class="cls-27" x="252.04" y="1631.73" width="41.56" height="285.98"/><rect class="cls-27" x="252.04" y="1631.73" width="20.78" height="285.98"/><rect class="cls-26" x="243.33" y="1572.23" width="97.24" height="59.5"/><rect class="cls-27" x="243.33" y="1572.23" width="56.03" height="59.5"/><rect class="cls-27" x="243.33" y="1572.23" width="28.02" height="59.5"/><rect class="cls-18" x="92.41" y="1631.73" width="399.07" height="17.41"/><rect class="cls-28" x="746.28" y="1817.75" width="264.47" height="93.78"/><polygon class="cls-29" points="746.55 1877.28 746.55 1893.22 773.87 1910.01 799.82 1910.01 746.55 1877.28"/><polygon class="cls-29" points="746.55 1837.28 746.55 1853.22 838.98 1910.01 864.93 1910.01 746.55 1837.28"/><polygon class="cls-29" points="770.8 1812.18 746.55 1812.18 746.55 1813.23 904.1 1910.01 930.04 1910.01 770.8 1812.18"/><polygon class="cls-29" points="995.15 1910.01 835.9 1812.18 809.96 1812.18 969.21 1910.01 995.15 1910.01"/><polygon class="cls-29" points="1010.35 1879.34 901.02 1812.18 875.08 1812.18 1010.35 1895.28 1010.35 1879.34"/><polygon class="cls-29" points="1010.35 1839.35 966.14 1812.18 940.19 1812.18 1010.35 1855.28 1010.35 1839.35"/><path class="cls-18" d="M973,1899.45c-16.4,3.49-35.53,3.06-49.49-7.39-6.64-5-10.82-11.86-17-17.26-4.65-4.09-12.68-5.64-18.58-6.93-7.94-1.73-16.73-2.93-24.48.28s-14.09,10.3-21.23,14.66c-14.73,9-31.84,12-48.69,7.69-17.61-4.48-35.12-14.5-47.26-28.52v49.54h264.47v-33A75.94,75.94,0,0,1,973,1899.45Z"/><path class="cls-22" d="M793.48,1864.07c12.8,4.34,22.65-2.35,31-11.75,10.33-11.61,21-25.53,38.44-25,17.92.55,31.17,11.41,44.14,22.67,10,8.66,18.61,15.79,32.61,14.53,15-1.36,33.79-8.18,42.56-21.4,6.94-10.48,10.65-22.48,15.46-34H760.55a15.83,15.83,0,0,1-.82,5.54C753.82,1832.62,777.47,1858.64,793.48,1864.07Z"/><path class="cls-7" d="M866,1777.66s-53.15-42.42-54.52-51.06,27.34-29.9,35.58-26.1,24.78,66.75,24.78,66.75Z"/><path class="cls-11" d="M851.39,1751.21c4-4.92,1.48-18.91,3.06-25.09a34.05,34.05,0,0,0,.5-12.34c8,19.54,16.92,53.47,16.92,53.47L866,1777.66s-15.95-12.72-30.59-25.65C839.24,1749.45,848.51,1754.77,851.39,1751.21Z"/><path class="cls-6" d="M860.6,1757.44l-8.13-29.58,15,26.77a3.72,3.72,0,1,1-6.5,3.64A3.3,3.3,0,0,1,860.6,1757.44Z"/><path class="cls-6" d="M853.59,1767l-17.69-23.36,23,18.18a3.73,3.73,0,0,1-4.63,5.85A3.43,3.43,0,0,1,853.59,1767Z"/><path class="cls-6" d="M860.86,1770.92l-12.32-28.05,18.68,24.27a3.73,3.73,0,1,1-5.9,4.55A3.82,3.82,0,0,1,860.86,1770.92Z"/><path class="cls-7" d="M870.9,1782.75s-67.95,2.64-74.64-3,1.15-40.5,9.86-43,62.39,34.31,62.39,34.31Z"/><path class="cls-11" d="M842.54,1772.3c-.19-6.34-11.24-15.27-14.09-21a34.26,34.26,0,0,0-7.69-9.67c18.83,9.56,47.75,29.4,47.75,29.4l2.39,11.7s-20.38.79-39.92.58C832.19,1778.91,842.68,1776.88,842.54,1772.3Z"/><path class="cls-6" d="M853.58,1771l-25.5-17.08,28.84,10.48a3.73,3.73,0,0,1-2.55,7A3.93,3.93,0,0,1,853.58,1771Z"/><path class="cls-6" d="M854.52,1782.82l-28.65-6.11,29.27-1.26a3.73,3.73,0,1,1,.31,7.45A4.08,4.08,0,0,1,854.52,1782.82Z"/><path class="cls-6" d="M853.37,1775.87l-18.44-8,20.09.81a3.76,3.76,0,1,1-1.65,7.21Z"/><path class="cls-7" d="M892.79,1776.74s53.15-42.42,54.52-51.07-27.35-29.89-35.58-26.09S887,1766.33,887,1766.33Z"/><path class="cls-11" d="M907.42,1750.3c-4-4.93-1.47-18.92-3-25.1a33.83,33.83,0,0,1-.5-12.34c-8,19.54-16.92,53.47-16.92,53.47l5.84,10.41s15.94-12.72,30.59-25.65C919.57,1748.53,910.3,1753.85,907.42,1750.3Z"/><path class="cls-6" d="M891.38,1753.72l15-26.78-8.13,29.58a3.72,3.72,0,1,1-7.18-2A3,3,0,0,1,891.38,1753.72Z"/><path class="cls-6" d="M900,1760.91l23-18.17-17.69,23.35a3.73,3.73,0,1,1-5.94-4.5A3.55,3.55,0,0,1,900,1760.91Z"/><path class="cls-6" d="M891.59,1766.22,910.27,1742,898,1770a3.72,3.72,0,1,1-6.82-3A4,4,0,0,1,891.59,1766.22Z"/><path class="cls-7" d="M888.29,1783s17.77-65.64,13.76-73.42-39.73-7.93-44.12,0,19.5,68.48,19.5,68.48Z"/><path class="cls-11" d="M884.45,1753c-6.13-1.6-12.37-14.37-17.3-18.43a34,34,0,0,1-7.7-9.65c5.1,20.49,18,53.12,18,53.12l10.86,4.94s5.33-19.69,9.5-38.78C893.2,1744.44,888.88,1754.2,884.45,1753Z"/><path class="cls-6" d="M873.53,1765.29l-3.76-30.44,10.94,28.65a3.73,3.73,0,1,1-7,2.66A4,4,0,0,1,873.53,1765.29Z"/><path class="cls-6" d="M884.7,1766l7.77-28.24-.44,29.29a3.73,3.73,0,1,1-7.46-.12A3.66,3.66,0,0,1,884.7,1766Z"/><path class="cls-6" d="M878.11,1764.39l3.7-19.76,3.7,19.76a3.76,3.76,0,0,1-7.4,1.39A3.82,3.82,0,0,1,878.11,1764.39Z"/><path class="cls-7" d="M887.92,1778.73s68,2.65,74.63-3-1.15-40.49-9.86-43S890.3,1767,890.3,1767Z"/><path class="cls-11" d="M916.28,1768.29c.19-6.34,11.24-15.28,14.09-21a33.87,33.87,0,0,1,7.69-9.66c-18.83,9.56-47.76,29.4-47.76,29.4l-2.38,11.69s20.39.8,39.92.59C926.62,1774.9,916.13,1772.86,916.28,1768.29Z"/><path class="cls-6" d="M901.9,1760.39l28.83-10.48L905.25,1767a3.73,3.73,0,1,1-3.35-6.59Z"/><path class="cls-6" d="M903.69,1771.44,933,1772.7l-28.65,6.11a3.73,3.73,0,1,1-1.56-7.29A3.39,3.39,0,0,1,903.69,1771.44Z"/><path class="cls-6" d="M903.8,1764.65l20.09-.82-18.44,8a3.76,3.76,0,1,1-1.65-7.21Z"/><path class="cls-7" d="M898.47,1771.67c0,6.18-8.26,11.18-18.46,11.18s-18.45-5-18.45-11.18,8.26-11.19,18.45-11.19S898.47,1765.49,898.47,1771.67Z"/><path class="cls-12" d="M893.39,1712c-3.61-3.78-10.23-4-15.1-4-3.54,0-10.26-.08-12.31,3.56a.09.09,0,0,0,0,.14,19.06,19.06,0,0,0,5.94.22A36.6,36.6,0,0,1,882.8,1713c2.9.73,5.39,2.32,8.17,3.09a2.49,2.49,0,0,0,3.06-1.73A2.45,2.45,0,0,0,893.39,1712Z"/><path class="cls-12" d="M931.79,1709.94c-3.78-2.75-11.39-7-16.23-5a.74.74,0,0,0-.17,1.34c4.07,2.13,8.39,3.26,12.34,5.84a25.73,25.73,0,0,1,6.59,6.15c1.12,1.51,1.32,3.34,3,4.38a1.58,1.58,0,0,0,2.13-.56C942.2,1717.83,934.67,1712,931.79,1709.94Z"/><path class="cls-12" d="M954.7,1741.47c-1.76-2.07-5.1-4.12-7.92-3.17a1.1,1.1,0,0,0-.48,1.81c1.31,1.6,3,2.84,4.36,4.47,1.49,1.84,1.74,3.89,2.36,6.09s4.08,2.37,4.6,0C958.32,1747.39,956.81,1744,954.7,1741.47Z"/><path class="cls-12" d="M847.46,1707.94c-.63-4.49-6.84-4.21-10-3s-7.29,3.65-9.32,6.49a.8.8,0,0,0,.48,1.18c2.38.5,4.82-1.33,6.88-2.3a16,16,0,0,1,5.3-1.89c1.82-.18,2.75,1.26,4.37,1.76C846.68,1710.63,847.63,1709.23,847.46,1707.94Z"/><path class="cls-12" d="M807.23,1743.74c-6.83-.27-10.72,8.55-8.59,14.24a.92.92,0,0,0,1.76,0c.81-2,1.61-4,2.5-6s2.08-3.35,4.33-3.13C810.49,1749.18,810.57,1743.87,807.23,1743.74Z"/><rect class="cls-28" x="738.59" y="1778.32" width="279.86" height="39.43"/><rect class="cls-13" x="738.59" y="1778.32" width="279.86" height="14.42"/><rect class="cls-7" x="852.06" y="1817.75" width="52.9" height="93.78"/><rect class="cls-18" x="852.06" y="1817.75" width="37.51" height="93.78"/><rect class="cls-18" x="852.06" y="1817.75" width="18.75" height="93.78"/><rect class="cls-7" x="846.29" y="1778.32" width="64.44" height="39.43"/><rect class="cls-18" x="846.29" y="1778.32" width="45.7" height="39.43"/><rect class="cls-18" x="846.29" y="1778.32" width="22.86" height="39.43"/><rect class="cls-18" x="746.28" y="1817.75" width="264.47" height="11.54"/></g></g></g></g></g></svg>