<svg xmlns="http://www.w3.org/2000/svg" viewBox="0 0 221.15 308.4"><defs><style>.cls-1,.cls-2{fill:none;stroke:#5a2679;stroke-miterlimit:10;stroke-width:2.3px;}.cls-2{opacity:0.2;}</style></defs><g id="Capa_2" data-name="Capa 2"><g id="Capa_1-2" data-name="Capa 1"><path class="cls-1" d="M172.7,61.85c-10.35,6.05-23.82,9-35.36,11.73-8,1.87-36.66,9.3-30.45-8a291.92,291.92,0,0,1,14.82-34.11c7.67-15,19.24-38.21,40-27.75,10.57,5.34,20,16.57,24.23,27.48,1.71,4.37,2.82,9.15,1.87,13.74C186.18,52.59,179.41,57.92,172.7,61.85Z" transform="translate(0 0)"/><path class="cls-1" d="M120.64,67.67c13.68-10,27.66-20.4,37-34.72" transform="translate(0 0)"/><path class="cls-1" d="M121.37,72.77c16-5.67,32.36-11.56,45.42-22.59" transform="translate(0 0)"/><path class="cls-2" d="M172.28,56c-11.29,4-25.08,4.47-36.92,5-5.18.22-18.82,1.1-25.87-2.24-.89,2.28-1.77,4.56-2.6,6.86-6.21,17.25,22.44,9.82,30.46,8,11.53-2.7,25-5.68,35.35-11.73,6.05-3.54,12.13-8.25,14.42-14.73C183.38,51.36,177.74,54.08,172.28,56Z" transform="translate(0 0)"/><path class="cls-1" d="M155,1.47c-16.58-3-26.44,16.79-33.24,30.05a291.92,291.92,0,0,0-14.82,34.11,11.43,11.43,0,0,0-.8,5.41c5.25-2.49,9.46-7.66,13.43-11.7a220.09,220.09,0,0,0,19.55-22.8C146.84,26.12,153.89,14.3,155,1.47Z" transform="translate(0 0)"/><path class="cls-1" d="M36.19,69.08C47.12,74,60.83,75.55,72.59,77,80.76,78,110,82.38,102,65.89A289.64,289.64,0,0,0,83.69,33.53C74.49,19.47,60.53-2.43,41,10.16c-10,6.43-18.1,18.58-21.19,29.89-1.23,4.52-1.84,9.39-.4,13.85C21.81,61.3,29.11,65.89,36.19,69.08Z" transform="translate(0 0)"/><path class="cls-1" d="M88.58,69.36C73.92,60.83,58.92,52,48.12,38.75" transform="translate(0 0)"/><path class="cls-1" d="M88.39,74.52c-16.5-4-33.4-8.08-47.55-17.67" transform="translate(0 0)"/><path class="cls-2" d="M36,63.25c11.65,2.81,25.41,1.79,37.23,1,5.18-.32,18.83-.9,25.5-5,1.12,2.17,2.24,4.35,3.3,6.55C110,82.38,80.76,78,72.59,77c-11.76-1.46-25.47-3-36.4-7.93C29.8,66.2,23.27,62.16,20.3,56,24.47,59.78,30.36,61.88,36,63.25Z" transform="translate(0 0)"/><path class="cls-1" d="M47.47,7.16C63.64,2.47,75.54,21.07,83.69,33.53A291.3,291.3,0,0,1,102,65.89a11.38,11.38,0,0,1,1.36,5.29C97.92,69.26,93.19,64.56,88.82,61A218.4,218.4,0,0,1,67,40.36C58.13,30.82,49.88,19.81,47.47,7.16Z" transform="translate(0 0)"/><path class="cls-1" d="M97,57.44c-7.46,3.5-14.1,11.66-8.62,19A12.64,12.64,0,0,0,94.2,80.6c8,3,22.63,1,26.23-8.1,3.19-8-4.8-14.66-11.81-16.45A18.21,18.21,0,0,0,97,57.44Z" transform="translate(0 0)"/><path class="cls-1" d="M219.78,124,1.22,135.57,3.94,90a7.91,7.91,0,0,1,7.11-7.4L201.21,63.75a7.89,7.89,0,0,1,8.55,6.42Z" transform="translate(0 0)"/><polygon class="cls-1" points="203.31 298.33 36.02 307.19 21.59 134.49 199.41 125.07 203.31 298.33"/><polygon class="cls-1" points="104.09 303.18 93.3 130.69 130.79 128.7 133.03 301.65 104.09 303.18"/><polygon class="cls-1" points="84.72 75.29 87.67 130.99 126.85 129.02 125.7 71.23 84.72 75.29"/></g></g></svg>