<svg xmlns="http://www.w3.org/2000/svg" viewBox="0 0 469.41 656.04"><defs><style>.cls-1,.cls-5{fill:none;}.cls-2{fill:#5a2679;}.cls-3,.cls-4{fill:#fff;}.cls-3,.cls-4,.cls-5{stroke:#5a2679;stroke-miterlimit:10;stroke-width:2.3px;}.cls-4{opacity:0.2;}</style></defs><g id="Capa_2" data-name="Capa 2"><g id="Capa_1-2" data-name="Capa 1"><polygon class="cls-1" points="424.53 265.83 44.73 285.94 47.89 323.69 425.41 304.76 424.53 265.83"/><polygon class="cls-1" points="425.41 304.76 47.89 323.69 50.96 360.44 426.24 341.82 425.41 304.76"/><polygon class="cls-2" points="432.08 601.19 431.25 564.14 430.41 527.09 429.58 490.03 428.74 452.98 427.91 415.92 427.07 378.87 426.24 341.82 50.96 360.44 54.03 397.19 57.1 433.95 60.17 470.71 63.24 507.47 66.31 544.23 69.38 581 72.45 617.76 75.54 654.83 432.86 635.9 432.08 601.19"/></g><g id="Capa_3" data-name="Capa 3"><polygon class="cls-3" points="220.93 646.25 197.89 277.83 277.96 273.59 282.76 642.98 220.93 646.25"/><path class="cls-3" d="M367.48,130.79c-22.1,12.93-50.87,19.3-75.52,25.05-17.12,4-78.32,19.88-65-17A620.47,620.47,0,0,1,258.57,66C275,34.06,299.66-15.6,343.9,6.75c22.59,11.4,42.65,35.38,51.76,58.7,3.65,9.32,6,19.53,4,29.33C396.27,111,381.81,122.41,367.48,130.79Z"/><path class="cls-3" d="M256.29,143.22c29.21-21.44,59.07-43.57,79-74.15"/><path class="cls-3" d="M257.84,154.13C292,142,327,129.42,354.86,105.87"/><path class="cls-4" d="M366.58,118.36C342.47,127,313,127.91,287.74,129c-11.08.48-40.21,2.35-55.28-4.78-1.89,4.87-3.77,9.74-5.54,14.66-13.28,36.84,47.92,21,65.05,17,24.64-5.75,53.41-12.12,75.51-25.05,12.93-7.56,25.9-17.62,30.8-31.45C390.28,108.39,378.24,114.2,366.58,118.36Z"/><path class="cls-3" d="M329.57,1.83c-35.41-6.32-56.48,35.87-71,64.18a622.21,622.21,0,0,0-31.66,72.87c-1.67,4.64-2.15,8.44-1.7,11.54,11.2-5.31,20.19-16.36,28.67-25a471.33,471.33,0,0,0,41.78-48.69C312.26,54.48,327.29,29.24,329.57,1.83Z"/><path class="cls-3" d="M75.92,146.24c23.34,10.52,52.62,13.82,77.73,16.93,17.46,2.17,80,11.49,62.89-23.75a621.15,621.15,0,0,0-39.17-69.11c-19.66-30-49.48-76.81-91.12-49.92C65,34.12,47.59,60.08,41,84.24c-2.64,9.65-3.93,20.05-.87,29.58C45.19,129.62,60.79,139.42,75.92,146.24Z"/><path class="cls-3" d="M187.8,146.85c-31.32-18.24-63.35-37.09-86.4-65.39"/><path class="cls-3" d="M187.4,157.86c-35.24-8.44-71.34-17.26-101.57-37.73"/><path class="cls-4" d="M75.5,133.78c24.88,6,54.27,3.84,79.53,2.25,11.06-.69,40.22-1.91,54.45-10.59,2.4,4.64,4.79,9.29,7.06,14,17.1,35.24-45.43,25.92-62.89,23.75-25.11-3.11-54.39-6.41-77.73-16.93-13.66-6.16-27.62-14.79-33.95-28C50.87,126.37,63.46,130.87,75.5,133.78Z"/><path class="cls-3" d="M100,14c34.54-10,60,29.7,77.38,56.32a622.83,622.83,0,0,1,39.18,69.11c2.15,4.45,3,8.18,2.91,11.31-11.7-4.1-21.81-14.14-31.15-21.81a469.11,469.11,0,0,1-46.68-44C122.77,64.52,105.15,41,100,14Z"/><path class="cls-3" d="M205.81,121.38c-15.92,7.47-30.11,24.91-18.4,40.69a27,27,0,0,0,12.4,8.78c17,6.39,48.35,2,56-17.3,6.81-17.15-10.25-31.32-25.21-35.14a38.82,38.82,0,0,0-24.81,3Z"/><path class="cls-5" d="M468,263.52,1.22,288.25,7,190.88a16.88,16.88,0,0,1,15.18-15.8l406.18-40.23a16.88,16.88,0,0,1,18.26,13.71Z"/><polygon class="cls-3" points="179.56 159.5 185.87 278.47 269.55 274.27 267.1 150.83 179.56 159.5"/><polygon class="cls-5" points="432.08 601.19 431.25 564.14 430.41 527.09 429.58 490.03 428.74 452.98 427.91 415.92 427.07 378.87 426.24 341.82 425.41 304.76 424.53 265.83 44.73 285.94 47.89 323.69 50.96 360.44 54.03 397.19 57.1 433.95 60.17 470.71 63.24 507.47 66.31 544.23 69.38 581 72.45 617.76 75.54 654.83 432.86 635.9 432.08 601.19"/></g></g></svg>