<svg xmlns="http://www.w3.org/2000/svg" viewBox="0 0 181.72 182.13"><defs><style>.cls-1{fill:none;}.cls-2{fill:#5a2679;}</style></defs><g id="Capa_2" data-name="Capa 2"><g id="Capa_1-2" data-name="Capa 1"><polygon class="cls-1" points="178.58 34 2.88 43.84 4.32 61.11 178.97 51.33 178.58 34"/><polygon class="cls-1" points="178.97 51.33 4.32 61.11 5.76 78.38 179.36 68.66 178.97 51.33"/><polygon class="cls-1" points="178.19 16.67 1.43 26.56 2.88 43.84 178.58 34 178.19 16.67"/><polygon class="cls-1" points="179.36 68.66 5.76 78.38 7.2 95.65 179.75 85.99 179.36 68.66"/><polygon class="cls-1" points="177.81 0 0 9.42 1.43 26.56 178.19 16.67 177.81 0"/><polygon class="cls-2" points="14.43 182.13 181.72 173.26 181.31 155.32 12.97 164.74 14.43 182.13"/><polygon class="cls-1" points="181.31 155.32 180.92 137.99 11.53 147.47 12.97 164.74 181.31 155.32"/><polygon class="cls-1" points="180.14 103.32 8.64 112.93 10.09 130.2 180.53 120.66 180.14 103.32"/><polygon class="cls-1" points="180.53 120.66 10.09 130.2 11.53 147.47 180.92 137.99 180.53 120.66"/><polygon class="cls-1" points="179.75 85.99 7.2 95.65 8.64 112.93 180.14 103.32 179.75 85.99"/></g></g></svg>